<?xml version="1.0" encoding="utf-8" standalone="no"?>
<!DOCTYPE svg PUBLIC "-//W3C//DTD SVG 1.1//EN"
  "http://www.w3.org/Graphics/SVG/1.1/DTD/svg11.dtd">
<!-- Created with matplotlib (https://matplotlib.org/) -->
<svg height="314.667469pt" version="1.1" viewBox="0 0 494.201675 314.667469" width="494.201675pt" xmlns="http://www.w3.org/2000/svg" xmlns:xlink="http://www.w3.org/1999/xlink">
 <defs>
  <style type="text/css">
*{stroke-linecap:butt;stroke-linejoin:round;}
  </style>
 </defs>
 <g id="figure_1">
  <g id="patch_1">
   <path d="M 0 314.667469 
L 494.201675 314.667469 
L 494.201675 0 
L 0 0 
z
" style="fill:#ffffff;"/>
  </g>
  <g id="axes_1">
   <g id="patch_2">
    <path d="M 43.78125 277.111219 
L 400.90125 277.111219 
L 400.90125 10.999219 
L 43.78125 10.999219 
z
" style="fill:#ffffff;"/>
   </g>
   <g id="PolyCollection_1">
    <defs>
     <path d="M 43.78125 -302.90793 
L 43.78125 -302.90793 
L 47.388523 -302.3605 
L 50.995795 -301.098368 
L 54.603068 -299.440491 
L 58.210341 -297.767406 
L 61.817614 -295.775368 
L 65.424886 -293.266692 
L 69.032159 -291.046558 
L 72.639432 -288.157342 
L 76.246705 -284.841586 
L 79.853977 -280.462903 
L 83.46125 -275.779712 
L 87.068523 -271.673224 
L 90.675795 -267.474737 
L 94.283068 -263.294118 
L 97.890341 -258.337591 
L 101.497614 -253.836497 
L 105.104886 -249.015308 
L 108.712159 -243.921544 
L 112.319432 -239.03991 
L 115.926705 -234.45442 
L 119.533977 -229.292607 
L 123.14125 -224.242942 
L 126.748523 -218.816158 
L 130.355795 -213.458943 
L 133.963068 -207.679371 
L 137.570341 -201.662578 
L 141.177614 -195.854494 
L 144.784886 -189.95289 
L 148.392159 -185.255633 
L 151.999432 -180.296826 
L 155.606705 -174.530179 
L 159.213977 -169.279789 
L 162.82125 -163.310517 
L 166.428523 -158.368437 
L 170.035795 -152.455048 
L 173.643068 -146.340935 
L 177.250341 -139.634912 
L 180.857614 -134.403531 
L 184.464886 -128.656652 
L 188.072159 -122.391615 
L 191.679432 -117.237026 
L 195.286705 -111.139259 
L 198.893977 -106.102139 
L 202.50125 -100.701206 
L 206.108523 -95.248191 
L 209.715795 -89.468999 
L 213.323068 -86.534924 
L 216.930341 -82.140654 
L 220.537614 -78.308642 
L 224.144886 -74.613867 
L 227.752159 -71.206112 
L 231.359432 -67.451652 
L 234.966705 -63.604813 
L 238.573977 -60.942933 
L 242.18125 -57.947652 
L 245.788523 -56.168884 
L 249.395795 -53.461764 
L 253.003068 -51.179664 
L 256.610341 -49.871153 
L 260.217614 -48.41362 
L 263.824886 -46.938599 
L 267.432159 -45.736533 
L 271.039432 -44.687671 
L 274.646705 -43.790114 
L 278.253977 -43.121792 
L 281.86125 -42.604395 
L 285.468523 -41.874868 
L 289.075795 -41.509534 
L 292.683068 -41.205026 
L 296.290341 -41.129374 
L 299.897614 -40.612736 
L 303.504886 -40.338641 
L 307.112159 -40.201783 
L 310.719432 -39.958481 
L 314.326705 -39.760798 
L 317.933977 -39.715179 
L 321.54125 -39.700352 
L 325.148523 -39.502289 
L 328.755795 -39.563115 
L 332.363068 -39.608734 
L 335.970341 -39.533082 
L 339.577614 -39.502289 
L 343.184886 -39.45705 
L 346.792159 -39.441463 
L 350.399432 -39.365431 
L 354.006705 -39.350225 
L 357.613977 -39.365431 
L 361.22125 -39.350225 
L 364.828523 -39.320192 
L 368.435795 -39.350605 
L 372.043068 -39.24416 
L 375.650341 -39.274193 
L 379.257614 -39.289399 
L 382.864886 -39.274573 
L 386.472159 -39.28978 
L 390.079432 -39.28978 
L 393.686705 -39.274573 
L 397.293977 -39.2434 
L 400.90125 -39.380638 
L 400.90125 -42.104104 
L 400.90125 -42.104104 
L 397.293977 -42.11855 
L 393.686705 -41.936454 
L 390.079432 -41.936834 
L 386.472159 -41.90528 
L 382.864886 -41.9509 
L 379.257614 -42.102964 
L 375.650341 -41.905661 
L 372.043068 -42.11817 
L 368.435795 -42.148963 
L 364.828523 -42.089658 
L 361.22125 -42.194202 
L 357.613977 -42.148583 
L 354.006705 -42.148583 
L 350.399432 -42.240201 
L 346.792159 -42.224995 
L 343.184886 -42.438265 
L 339.577614 -42.483124 
L 335.970341 -42.452711 
L 332.363068 -42.559156 
L 328.755795 -42.483504 
L 325.148523 -42.7116 
L 321.54125 -42.696393 
L 317.933977 -43.060967 
L 314.326705 -42.969728 
L 310.719432 -43.486746 
L 307.112159 -44.01897 
L 303.504886 -44.292685 
L 299.897614 -44.718845 
L 296.290341 -45.859325 
L 292.683068 -45.889357 
L 289.075795 -46.376342 
L 285.468523 -46.984218 
L 281.86125 -48.20111 
L 278.253977 -49.022636 
L 274.646705 -50.162736 
L 271.039432 -51.546138 
L 267.432159 -53.173983 
L 263.824886 -55.013577 
L 260.217614 -56.550184 
L 256.610341 -58.831144 
L 253.003068 -60.701151 
L 249.395795 -63.970527 
L 245.788523 -66.435104 
L 242.18125 -70.221118 
L 238.573977 -73.142267 
L 234.966705 -76.775456 
L 231.359432 -81.427094 
L 227.752159 -85.350345 
L 224.144886 -88.636829 
L 220.537614 -93.442051 
L 216.930341 -97.744702 
L 213.323068 -103.947773 
L 209.715795 -107.583623 
L 206.108523 -113.105827 
L 202.50125 -118.608263 
L 198.893977 -123.657548 
L 195.286705 -129.585763 
L 191.679432 -134.954002 
L 188.072159 -140.929737 
L 184.464886 -147.301979 
L 180.857614 -151.91218 
L 177.250341 -158.082937 
L 173.643068 -164.153332 
L 170.035795 -169.580496 
L 166.428523 -174.448064 
L 162.82125 -179.56996 
L 159.213977 -185.470804 
L 155.606705 -189.941485 
L 151.999432 -194.931465 
L 148.392159 -200.176913 
L 144.784886 -205.8489 
L 141.177614 -210.914152 
L 137.570341 -217.495482 
L 133.963068 -222.48128 
L 130.355795 -228.184061 
L 126.748523 -234.054111 
L 123.14125 -238.8753 
L 119.533977 -243.832587 
L 115.926705 -248.210889 
L 112.319432 -253.366999 
L 108.712159 -256.863331 
L 105.104886 -262.23195 
L 101.497614 -265.8659 
L 97.890341 -269.38238 
L 94.283068 -273.362655 
L 90.675795 -277.088223 
L 87.068523 -280.037885 
L 83.46125 -283.56615 
L 79.853977 -287.352543 
L 76.246705 -290.547408 
L 72.639432 -293.130975 
L 69.032159 -295.228698 
L 65.424886 -296.855783 
L 61.817614 -298.635312 
L 58.210341 -299.897063 
L 54.603068 -301.159194 
L 50.995795 -302.14761 
L 47.388523 -302.786659 
L 43.78125 -302.90793 
z
" id="mb175a3b189" style="stroke:#3b5b92;stroke-opacity:0.2;"/>
    </defs>
    <g clip-path="url(#p228fc3259d)">
     <use style="fill:#3b5b92;fill-opacity:0.2;stroke:#3b5b92;stroke-opacity:0.2;" x="0" xlink:href="#mb175a3b189" y="314.667469"/>
    </g>
   </g>
   <g id="PolyCollection_2">
    <defs>
     <path d="M 43.78125 -38.31657 
L 43.78125 -38.31657 
L 47.388523 -38.31657 
L 50.995795 -38.711936 
L 54.603068 -39.380638 
L 58.210341 -40.201783 
L 61.817614 -40.780007 
L 65.424886 -41.798455 
L 69.032159 -42.391885 
L 72.639432 -43.63843 
L 76.246705 -44.809323 
L 79.853977 -46.147486 
L 83.46125 -47.622507 
L 87.068523 -49.006669 
L 90.675795 -50.147149 
L 94.283068 -51.150772 
L 97.890341 -51.911092 
L 101.497614 -52.549 
L 105.104886 -53.034845 
L 108.712159 -54.465387 
L 112.319432 -55.104436 
L 115.926705 -55.787583 
L 119.533977 -56.427392 
L 123.14125 -57.44432 
L 126.748523 -58.281433 
L 130.355795 -59.149338 
L 133.963068 -60.046135 
L 137.570341 -60.304644 
L 141.177614 -61.080551 
L 144.784886 -60.974106 
L 148.392159 -61.490743 
L 151.999432 -61.110964 
L 155.606705 -60.928107 
L 159.213977 -61.445504 
L 162.82125 -61.794871 
L 166.428523 -61.627601 
L 170.035795 -61.931349 
L 173.643068 -62.692049 
L 177.250341 -62.662016 
L 180.857614 -63.254686 
L 184.464886 -63.726084 
L 188.072159 -63.528021 
L 191.679432 -63.361511 
L 195.286705 -63.36075 
L 198.893977 -63.619259 
L 202.50125 -62.874146 
L 206.108523 -62.403127 
L 209.715795 -62.022967 
L 213.323068 -61.065344 
L 216.930341 -60.578359 
L 220.537614 -60.167026 
L 224.144886 -59.559531 
L 227.752159 -57.993652 
L 231.359432 -57.551145 
L 234.966705 -56.73152 
L 238.573977 -55.925581 
L 242.18125 -55.195674 
L 245.788523 -53.537416 
L 249.395795 -52.671031 
L 253.003068 -51.864332 
L 256.610341 -50.754645 
L 260.217614 -49.432068 
L 263.824886 -48.36762 
L 267.432159 -47.531648 
L 271.039432 -46.512439 
L 274.646705 -45.691294 
L 278.253977 -44.733671 
L 281.86125 -43.744494 
L 285.468523 -43.197444 
L 289.075795 -42.391885 
L 292.683068 -41.768043 
L 296.290341 -41.129754 
L 299.897614 -40.627563 
L 303.504886 -40.21699 
L 307.112159 -39.745972 
L 310.719432 -39.487463 
L 314.326705 -39.350225 
L 317.933977 -39.030891 
L 321.54125 -38.772762 
L 325.148523 -38.590285 
L 328.755795 -38.453047 
L 332.363068 -38.210125 
L 335.970341 -38.118887 
L 339.577614 -38.057681 
L 343.184886 -37.981649 
L 346.792159 -37.93641 
L 350.399432 -37.890411 
L 354.006705 -37.814759 
L 357.613977 -37.784346 
L 361.22125 -37.738727 
L 364.828523 -37.708314 
L 368.435795 -37.662695 
L 372.043068 -37.647488 
L 375.650341 -37.632282 
L 379.257614 -37.601869 
L 382.864886 -37.601869 
L 386.472159 -37.601869 
L 390.079432 -37.586663 
L 393.686705 -37.571456 
L 397.293977 -37.571456 
L 400.90125 -37.55625 
L 400.90125 -37.647488 
L 400.90125 -37.647488 
L 397.293977 -37.677901 
L 393.686705 -37.677901 
L 390.079432 -37.799552 
L 386.472159 -37.814759 
L 382.864886 -37.845172 
L 379.257614 -37.829965 
L 375.650341 -37.921204 
L 372.043068 -38.027648 
L 368.435795 -38.073268 
L 364.828523 -38.194919 
L 361.22125 -38.270951 
L 357.613977 -38.256125 
L 354.006705 -38.438221 
L 350.399432 -38.544666 
L 346.792159 -38.590285 
L 343.184886 -38.727143 
L 339.577614 -38.864 
L 335.970341 -38.970445 
L 332.363068 -39.168509 
L 328.755795 -39.488223 
L 325.148523 -39.974068 
L 321.54125 -40.461053 
L 317.933977 -40.780007 
L 314.326705 -41.267752 
L 310.719432 -41.509914 
L 307.112159 -41.753216 
L 303.504886 -42.635568 
L 299.897614 -43.137759 
L 296.290341 -43.593191 
L 292.683068 -44.642432 
L 289.075795 -45.402752 
L 285.468523 -46.269897 
L 281.86125 -46.999424 
L 278.253977 -48.155491 
L 274.646705 -49.55486 
L 271.039432 -50.421245 
L 267.432159 -51.303216 
L 263.824886 -51.987124 
L 260.217614 -53.492937 
L 256.610341 -54.739862 
L 253.003068 -55.80393 
L 249.395795 -56.489358 
L 245.788523 -57.522633 
L 242.18125 -58.936829 
L 238.573977 -59.743528 
L 234.966705 -60.594706 
L 231.359432 -61.445885 
L 227.752159 -61.977728 
L 224.144886 -63.696052 
L 220.537614 -64.228276 
L 216.930341 -64.669641 
L 213.323068 -65.278658 
L 209.715795 -66.205488 
L 206.108523 -66.966188 
L 202.50125 -67.634889 
L 198.893977 -67.452413 
L 195.286705 -67.378662 
L 191.679432 -67.056666 
L 188.072159 -67.452032 
L 184.464886 -67.680509 
L 180.857614 -67.269936 
L 177.250341 -66.737712 
L 173.643068 -66.008565 
L 170.035795 -65.353929 
L 166.428523 -64.942976 
L 162.82125 -64.97529 
L 159.213977 -64.806119 
L 155.606705 -64.411893 
L 151.999432 -64.304688 
L 148.392159 -64.669261 
L 144.784886 -64.061005 
L 141.177614 -64.319514 
L 137.570341 -63.589987 
L 133.963068 -63.438303 
L 130.355795 -62.525919 
L 126.748523 -62.129792 
L 123.14125 -61.202582 
L 119.533977 -60.122928 
L 115.926705 -59.666736 
L 112.319432 -59.286196 
L 108.712159 -58.708733 
L 105.104886 -57.765936 
L 101.497614 -56.990409 
L 97.890341 -56.56463 
L 94.283068 -55.485356 
L 90.675795 -54.254018 
L 87.068523 -52.59538 
L 83.46125 -51.333629 
L 79.853977 -49.158733 
L 76.246705 -47.501616 
L 72.639432 -46.407135 
L 69.032159 -44.672845 
L 65.424886 -43.792014 
L 61.817614 -42.544329 
L 58.210341 -41.616359 
L 54.603068 -40.567117 
L 50.995795 -39.517876 
L 47.388523 -38.620698 
L 43.78125 -38.31657 
z
" id="m9d52935519" style="stroke:#ff5b00;stroke-opacity:0.2;"/>
    </defs>
    <g clip-path="url(#p228fc3259d)">
     <use style="fill:#ff5b00;fill-opacity:0.2;stroke:#ff5b00;stroke-opacity:0.2;" x="0" xlink:href="#m9d52935519" y="314.667469"/>
    </g>
   </g>
   <g id="PolyCollection_3">
    <defs>
     <path d="M 43.78125 -37.55625 
L 43.78125 -37.55625 
L 47.388523 -37.632282 
L 50.995795 -37.860378 
L 54.603068 -38.1493 
L 58.210341 -38.514253 
L 61.817614 -39.091716 
L 65.424886 -39.502669 
L 69.032159 -40.110545 
L 72.639432 -40.582324 
L 76.246705 -41.418676 
L 79.853977 -42.33106 
L 83.46125 -43.577984 
L 87.068523 -44.627226 
L 90.675795 -45.402752 
L 94.283068 -46.588471 
L 97.890341 -47.804983 
L 101.497614 -48.854605 
L 105.104886 -49.856707 
L 108.712159 -50.967915 
L 112.319432 -52.200013 
L 115.926705 -53.826338 
L 119.533977 -54.905992 
L 123.14125 -56.122504 
L 126.748523 -57.369429 
L 130.355795 -58.358225 
L 133.963068 -59.270989 
L 137.570341 -60.776423 
L 141.177614 -61.794111 
L 144.784886 -63.36075 
L 148.392159 -63.422336 
L 151.999432 -63.726084 
L 155.606705 -64.774946 
L 159.213977 -64.561676 
L 162.82125 -64.668881 
L 166.428523 -64.92739 
L 170.035795 -65.230758 
L 173.643068 -65.322756 
L 177.250341 -66.159108 
L 180.857614 -66.584507 
L 184.464886 -67.177557 
L 188.072159 -67.450512 
L 191.679432 -68.090321 
L 195.286705 -68.577306 
L 198.893977 -68.667024 
L 202.50125 -68.531687 
L 206.108523 -68.714164 
L 209.715795 -68.89626 
L 213.323068 -68.622545 
L 216.930341 -68.197146 
L 220.537614 -67.937497 
L 224.144886 -67.786573 
L 227.752159 -67.314795 
L 231.359432 -66.61568 
L 234.966705 -66.752538 
L 238.573977 -65.747395 
L 242.18125 -64.92739 
L 245.788523 -64.258688 
L 249.395795 -63.315131 
L 253.003068 -62.159825 
L 256.610341 -60.958139 
L 260.217614 -60.031309 
L 263.824886 -59.103339 
L 267.432159 -58.114923 
L 271.039432 -56.745586 
L 274.646705 -54.815134 
L 278.253977 -53.492557 
L 281.86125 -52.823095 
L 285.468523 -51.4089 
L 289.075795 -50.48131 
L 292.683068 -49.249591 
L 296.290341 -47.759364 
L 299.897614 -46.908186 
L 303.504886 -45.950183 
L 307.112159 -44.885355 
L 310.719432 -44.170654 
L 314.326705 -43.25865 
L 317.933977 -42.954522 
L 321.54125 -42.072551 
L 325.148523 -41.52512 
L 328.755795 -41.220612 
L 332.363068 -40.734007 
L 335.970341 -40.38464 
L 339.577614 -40.019307 
L 343.184886 -39.821623 
L 346.792159 -39.745972 
L 350.399432 -39.563495 
L 354.006705 -39.213748 
L 357.613977 -39.031271 
L 361.22125 -38.787968 
L 364.828523 -38.651111 
L 368.435795 -38.438221 
L 372.043068 -38.331396 
L 375.650341 -38.240538 
L 379.257614 -38.133713 
L 382.864886 -37.982029 
L 386.472159 -37.905997 
L 390.079432 -37.875584 
L 393.686705 -37.905997 
L 397.293977 -37.814759 
L 400.90125 -37.783966 
L 400.90125 -38.240538 
L 400.90125 -38.240538 
L 397.293977 -38.362189 
L 393.686705 -38.48384 
L 390.079432 -38.52946 
L 386.472159 -38.559872 
L 382.864886 -38.69673 
L 379.257614 -38.91 
L 375.650341 -39.228954 
L 372.043068 -39.320192 
L 368.435795 -39.685146 
L 364.828523 -39.989274 
L 361.22125 -40.202164 
L 357.613977 -40.567497 
L 354.006705 -40.947277 
L 350.399432 -41.19058 
L 346.792159 -41.388263 
L 343.184886 -41.525501 
L 339.577614 -41.798836 
L 335.970341 -42.270614 
L 332.363068 -42.87925 
L 328.755795 -43.593571 
L 325.148523 -44.049763 
L 321.54125 -44.749257 
L 317.933977 -45.738054 
L 314.326705 -46.179799 
L 310.719432 -47.501616 
L 307.112159 -48.322381 
L 303.504886 -49.432448 
L 299.897614 -50.543276 
L 296.290341 -51.698582 
L 292.683068 -53.386493 
L 289.075795 -54.618211 
L 285.468523 -55.940788 
L 281.86125 -56.686281 
L 278.253977 -57.522633 
L 274.646705 -58.754732 
L 271.039432 -60.093655 
L 267.432159 -61.993315 
L 263.824886 -63.118969 
L 260.217614 -63.696052 
L 256.610341 -64.533544 
L 253.003068 -65.764122 
L 249.395795 -67.224317 
L 245.788523 -67.893018 
L 242.18125 -68.714164 
L 238.573977 -69.278701 
L 234.966705 -70.569725 
L 231.359432 -70.296009 
L 227.752159 -71.193187 
L 224.144886 -71.421663 
L 220.537614 -71.77065 
L 216.930341 -72.120777 
L 213.323068 -72.349254 
L 209.715795 -72.91189 
L 206.108523 -72.927477 
L 202.50125 -72.759066 
L 198.893977 -72.926717 
L 195.286705 -72.987922 
L 191.679432 -73.200432 
L 188.072159 -71.999126 
L 184.464886 -71.162774 
L 180.857614 -70.63017 
L 177.250341 -70.508899 
L 173.643068 -68.898541 
L 170.035795 -68.94264 
L 166.428523 -68.72937 
L 162.82125 -68.273178 
L 159.213977 -68.197146 
L 155.606705 -68.288765 
L 151.999432 -67.315555 
L 148.392159 -67.269556 
L 144.784886 -67.132698 
L 141.177614 -65.946599 
L 137.570341 -64.54761 
L 133.963068 -63.604813 
L 130.355795 -62.768461 
L 126.748523 -61.567536 
L 123.14125 -60.396643 
L 119.533977 -59.970864 
L 115.926705 -58.51143 
L 112.319432 -57.051235 
L 108.712159 -55.774658 
L 105.104886 -54.511766 
L 101.497614 -53.128364 
L 97.890341 -51.83544 
L 94.283068 -50.330006 
L 90.675795 -49.067495 
L 87.068523 -47.806124 
L 83.46125 -46.407135 
L 79.853977 -45.007766 
L 76.246705 -43.624364 
L 72.639432 -42.438265 
L 69.032159 -41.646772 
L 65.424886 -40.704355 
L 61.817614 -40.095719 
L 58.210341 -39.274573 
L 54.603068 -38.818381 
L 50.995795 -38.194919 
L 47.388523 -37.829965 
L 43.78125 -37.55625 
z
" id="m046d46dbd8" style="stroke:#ff474c;stroke-opacity:0.2;"/>
    </defs>
    <g clip-path="url(#p228fc3259d)">
     <use style="fill:#ff474c;fill-opacity:0.2;stroke:#ff474c;stroke-opacity:0.2;" x="0" xlink:href="#m046d46dbd8" y="314.667469"/>
    </g>
   </g>
   <g id="PolyCollection_4">
    <defs>
     <path d="M 43.78125 -37.55625 
L 43.78125 -37.55625 
L 47.388523 -37.55625 
L 50.995795 -37.55625 
L 54.603068 -37.55625 
L 58.210341 -37.55625 
L 61.817614 -37.55625 
L 65.424886 -37.571456 
L 69.032159 -37.617076 
L 72.639432 -37.632282 
L 76.246705 -37.708314 
L 79.853977 -37.738727 
L 83.46125 -37.814759 
L 87.068523 -38.012442 
L 90.675795 -38.164506 
L 94.283068 -38.331776 
L 97.890341 -38.52946 
L 101.497614 -38.665937 
L 105.104886 -38.787968 
L 108.712159 -39.000858 
L 112.319432 -39.031271 
L 115.926705 -39.259367 
L 119.533977 -39.45667 
L 123.14125 -39.745591 
L 126.748523 -39.822004 
L 130.355795 -40.019687 
L 133.963068 -40.308608 
L 137.570341 -40.445466 
L 141.177614 -40.688768 
L 144.784886 -40.871245 
L 148.392159 -41.236199 
L 151.999432 -41.555533 
L 155.606705 -41.585566 
L 159.213977 -42.026551 
L 162.82125 -42.574362 
L 166.428523 -42.634807 
L 170.035795 -42.574362 
L 173.643068 -42.6656 
L 177.250341 -42.71122 
L 180.857614 -42.680807 
L 184.464886 -42.543569 
L 188.072159 -42.741632 
L 191.679432 -42.6656 
L 195.286705 -42.619981 
L 198.893977 -42.66522 
L 202.50125 -42.969348 
L 206.108523 -43.076173 
L 209.715795 -43.167412 
L 213.323068 -43.349888 
L 216.930341 -43.197824 
L 220.537614 -43.106586 
L 224.144886 -43.000141 
L 227.752159 -43.121792 
L 231.359432 -43.228237 
L 234.966705 -43.014967 
L 238.573977 -42.756839 
L 242.18125 -42.680427 
L 245.788523 -42.437504 
L 249.395795 -42.270234 
L 253.003068 -42.224615 
L 256.610341 -42.041758 
L 260.217614 -41.722804 
L 263.824886 -41.57074 
L 267.432159 -41.570359 
L 271.039432 -41.327437 
L 274.646705 -41.266231 
L 278.253977 -41.312231 
L 281.86125 -40.871245 
L 285.468523 -40.794453 
L 289.075795 -40.627943 
L 292.683068 -40.840832 
L 296.290341 -40.856039 
L 299.897614 -40.688768 
L 303.504886 -40.262609 
L 307.112159 -40.140958 
L 310.719432 -40.049719 
L 314.326705 -39.867623 
L 317.933977 -39.639527 
L 321.54125 -39.533082 
L 325.148523 -39.335019 
L 328.755795 -39.122509 
L 332.363068 -38.985652 
L 335.970341 -38.757175 
L 339.577614 -38.711936 
L 343.184886 -38.69673 
L 346.792159 -38.48384 
L 350.399432 -38.331396 
L 354.006705 -38.225332 
L 357.613977 -38.133713 
L 361.22125 -38.088474 
L 364.828523 -37.997236 
L 368.435795 -37.951616 
L 372.043068 -37.875584 
L 375.650341 -37.845172 
L 379.257614 -37.860378 
L 382.864886 -37.845172 
L 386.472159 -37.799552 
L 390.079432 -37.738727 
L 393.686705 -37.72352 
L 397.293977 -37.693108 
L 400.90125 -37.692727 
L 400.90125 -37.890791 
L 400.90125 -37.890791 
L 397.293977 -37.921204 
L 393.686705 -37.966823 
L 390.079432 -37.997616 
L 386.472159 -38.118887 
L 382.864886 -38.210125 
L 379.257614 -38.240538 
L 375.650341 -38.179712 
L 372.043068 -38.255744 
L 368.435795 -38.31657 
L 364.828523 -38.423015 
L 361.22125 -38.575079 
L 357.613977 -38.635904 
L 354.006705 -38.879207 
L 350.399432 -39.000858 
L 346.792159 -39.24416 
L 343.184886 -39.487463 
L 339.577614 -39.45705 
L 335.970341 -39.609494 
L 332.363068 -39.852416 
L 328.755795 -40.019687 
L 325.148523 -40.262989 
L 321.54125 -40.491085 
L 317.933977 -40.688768 
L 314.326705 -40.916864 
L 310.719432 -41.19096 
L 307.112159 -41.19058 
L 303.504886 -41.327817 
L 299.897614 -41.874868 
L 296.290341 -42.087757 
L 292.683068 -41.981312 
L 289.075795 -41.996519 
L 285.468523 -41.875248 
L 281.86125 -42.088518 
L 278.253977 -42.635188 
L 274.646705 -42.574362 
L 271.039432 -42.680807 
L 267.432159 -42.818045 
L 263.824886 -42.908903 
L 260.217614 -43.030934 
L 256.610341 -43.365095 
L 253.003068 -43.63881 
L 249.395795 -43.623604 
L 245.788523 -43.745635 
L 242.18125 -43.836493 
L 238.573977 -43.897319 
L 234.966705 -44.01897 
L 231.359432 -44.368717 
L 227.752159 -44.23224 
L 224.144886 -44.125795 
L 220.537614 -44.202207 
L 216.930341 -44.475162 
L 213.323068 -44.5664 
L 209.715795 -44.23224 
L 206.108523 -44.217033 
L 202.50125 -44.156208 
L 198.893977 -43.882112 
L 195.286705 -43.776048 
L 191.679432 -43.760841 
L 188.072159 -43.958144 
L 184.464886 -43.791254 
L 180.857614 -43.988557 
L 177.250341 -44.217033 
L 173.643068 -44.171034 
L 170.035795 -44.216653 
L 166.428523 -44.277479 
L 162.82125 -43.958525 
L 159.213977 -43.380301 
L 155.606705 -42.924109 
L 151.999432 -42.802458 
L 148.392159 -42.452711 
L 144.784886 -41.981312 
L 141.177614 -41.890834 
L 137.570341 -41.494708 
L 133.963068 -41.145341 
L 130.355795 -40.932451 
L 126.748523 -40.734388 
L 123.14125 -40.582324 
L 119.533977 -40.339401 
L 115.926705 -40.065306 
L 112.319432 -39.715559 
L 108.712159 -39.639527 
L 105.104886 -39.365812 
L 101.497614 -39.411431 
L 97.890341 -39.152922 
L 94.283068 -38.879587 
L 90.675795 -38.651111 
L 87.068523 -38.453428 
L 83.46125 -38.210125 
L 79.853977 -38.012442 
L 76.246705 -37.966823 
L 72.639432 -37.860378 
L 69.032159 -37.814759 
L 65.424886 -37.738727 
L 61.817614 -37.647869 
L 58.210341 -37.601869 
L 54.603068 -37.55625 
L 50.995795 -37.55625 
L 47.388523 -37.55625 
L 43.78125 -37.55625 
z
" id="m3b5e96448c" style="stroke:#f10c45;stroke-opacity:0.2;"/>
    </defs>
    <g clip-path="url(#p228fc3259d)">
     <use style="fill:#f10c45;fill-opacity:0.2;stroke:#f10c45;stroke-opacity:0.2;" x="0" xlink:href="#m3b5e96448c" y="314.667469"/>
    </g>
   </g>
   <g id="PolyCollection_5">
    <defs>
     <path d="M 43.78125 -37.55625 
L 43.78125 -37.55625 
L 47.388523 -37.55625 
L 50.995795 -37.55625 
L 54.603068 -37.55625 
L 58.210341 -37.55625 
L 61.817614 -37.55625 
L 65.424886 -37.55625 
L 69.032159 -37.55625 
L 72.639432 -37.55625 
L 76.246705 -37.55625 
L 79.853977 -37.55625 
L 83.46125 -37.571456 
L 87.068523 -37.586663 
L 90.675795 -37.601869 
L 94.283068 -37.617076 
L 97.890341 -37.632282 
L 101.497614 -37.647488 
L 105.104886 -37.677901 
L 108.712159 -37.799552 
L 112.319432 -37.829965 
L 115.926705 -37.829965 
L 119.533977 -37.860378 
L 123.14125 -37.920823 
L 126.748523 -38.012442 
L 130.355795 -37.997236 
L 133.963068 -38.027648 
L 137.570341 -38.1033 
L 141.177614 -38.088474 
L 144.784886 -38.1493 
L 148.392159 -38.164506 
L 151.999432 -38.31657 
L 155.606705 -38.362189 
L 159.213977 -38.407428 
L 162.82125 -38.438221 
L 166.428523 -38.544286 
L 170.035795 -38.514253 
L 173.643068 -38.650731 
L 177.250341 -38.727143 
L 180.857614 -38.833588 
L 184.464886 -38.772762 
L 188.072159 -38.803175 
L 191.679432 -38.818001 
L 195.286705 -38.879207 
L 198.893977 -38.924826 
L 202.50125 -38.90962 
L 206.108523 -38.833588 
L 209.715795 -38.970445 
L 213.323068 -38.894413 
L 216.930341 -39.07689 
L 220.537614 -39.07689 
L 224.144886 -39.107303 
L 227.752159 -39.061684 
L 231.359432 -39.259367 
L 234.966705 -39.168128 
L 238.573977 -39.152922 
L 242.18125 -39.152922 
L 245.788523 -39.228954 
L 249.395795 -39.198541 
L 253.003068 -39.198541 
L 256.610341 -39.259367 
L 260.217614 -39.350605 
L 263.824886 -39.45705 
L 267.432159 -39.350605 
L 271.039432 -39.365812 
L 274.646705 -39.228954 
L 278.253977 -39.07689 
L 281.86125 -39.031271 
L 285.468523 -38.90962 
L 289.075795 -38.864 
L 292.683068 -38.879207 
L 296.290341 -38.772762 
L 299.897614 -38.772382 
L 303.504886 -38.742349 
L 307.112159 -38.681524 
L 310.719432 -38.544666 
L 314.326705 -38.514253 
L 317.933977 -38.499047 
L 321.54125 -38.438221 
L 325.148523 -38.392602 
L 328.755795 -38.407808 
L 332.363068 -38.301364 
L 335.970341 -38.346983 
L 339.577614 -38.31657 
L 343.184886 -38.31657 
L 346.792159 -38.225332 
L 350.399432 -38.118887 
L 354.006705 -38.058061 
L 357.613977 -38.042855 
L 361.22125 -37.997236 
L 364.828523 -37.951616 
L 368.435795 -37.890791 
L 372.043068 -37.845172 
L 375.650341 -37.875584 
L 379.257614 -37.829965 
L 382.864886 -37.783966 
L 386.472159 -37.738727 
L 390.079432 -37.72352 
L 393.686705 -37.708314 
L 397.293977 -37.693108 
L 400.90125 -37.677901 
L 400.90125 -37.905997 
L 400.90125 -37.905997 
L 397.293977 -37.921204 
L 393.686705 -37.921204 
L 390.079432 -37.966823 
L 386.472159 -37.997236 
L 382.864886 -38.058061 
L 379.257614 -38.164506 
L 375.650341 -38.255744 
L 372.043068 -38.225332 
L 368.435795 -38.286157 
L 364.828523 -38.31657 
L 361.22125 -38.331776 
L 357.613977 -38.438221 
L 354.006705 -38.514253 
L 350.399432 -38.575079 
L 346.792159 -38.69673 
L 343.184886 -38.803175 
L 339.577614 -38.818381 
L 335.970341 -38.833588 
L 332.363068 -38.833588 
L 328.755795 -38.879207 
L 325.148523 -38.894793 
L 321.54125 -38.90962 
L 317.933977 -39.016064 
L 314.326705 -39.046477 
L 310.719432 -39.092096 
L 307.112159 -39.137716 
L 303.504886 -39.229334 
L 299.897614 -39.335399 
L 296.290341 -39.28978 
L 292.683068 -39.381018 
L 289.075795 -39.426637 
L 285.468523 -39.487463 
L 281.86125 -39.609114 
L 278.253977 -39.62432 
L 274.646705 -39.791591 
L 271.039432 -39.959241 
L 267.432159 -39.898416 
L 263.824886 -39.959241 
L 260.217614 -39.913242 
L 256.610341 -39.83721 
L 253.003068 -39.806797 
L 249.395795 -39.746352 
L 245.788523 -39.746352 
L 242.18125 -39.654733 
L 238.573977 -39.731145 
L 234.966705 -39.776384 
L 231.359432 -39.852416 
L 227.752159 -39.761178 
L 224.144886 -39.745972 
L 220.537614 -39.83721 
L 216.930341 -39.928448 
L 213.323068 -39.654733 
L 209.715795 -39.685146 
L 206.108523 -39.548288 
L 202.50125 -39.745972 
L 198.893977 -39.685146 
L 195.286705 -39.593908 
L 191.679432 -39.441844 
L 188.072159 -39.533462 
L 184.464886 -39.426637 
L 180.857614 -39.45705 
L 177.250341 -39.304986 
L 173.643068 -39.274573 
L 170.035795 -39.122509 
L 166.428523 -39.137716 
L 162.82125 -39.046477 
L 159.213977 -38.985652 
L 155.606705 -39.000858 
L 151.999432 -38.894413 
L 148.392159 -38.772762 
L 144.784886 -38.803175 
L 141.177614 -38.772762 
L 137.570341 -38.69673 
L 133.963068 -38.544666 
L 130.355795 -38.453428 
L 126.748523 -38.453428 
L 123.14125 -38.347363 
L 119.533977 -38.255744 
L 115.926705 -38.194919 
L 112.319432 -38.194919 
L 108.712159 -38.179712 
L 105.104886 -37.93679 
L 101.497614 -37.829965 
L 97.890341 -37.814759 
L 94.283068 -37.76914 
L 90.675795 -37.753933 
L 87.068523 -37.708314 
L 83.46125 -37.693108 
L 79.853977 -37.647488 
L 76.246705 -37.662695 
L 72.639432 -37.632282 
L 69.032159 -37.601869 
L 65.424886 -37.601869 
L 61.817614 -37.601869 
L 58.210341 -37.601869 
L 54.603068 -37.55625 
L 50.995795 -37.55625 
L 47.388523 -37.55625 
L 43.78125 -37.55625 
z
" id="md485ed2fb3" style="stroke:#cb0162;stroke-opacity:0.2;"/>
    </defs>
    <g clip-path="url(#p228fc3259d)">
     <use style="fill:#cb0162;fill-opacity:0.2;stroke:#cb0162;stroke-opacity:0.2;" x="0" xlink:href="#md485ed2fb3" y="314.667469"/>
    </g>
   </g>
   <g id="PolyCollection_6">
    <defs>
     <path d="M 43.78125 -37.55625 
L 43.78125 -37.55625 
L 47.388523 -37.55625 
L 50.995795 -37.55625 
L 54.603068 -37.55625 
L 58.210341 -37.617076 
L 61.817614 -37.753933 
L 65.424886 -37.93641 
L 69.032159 -38.194919 
L 72.639432 -38.52946 
L 76.246705 -39.046477 
L 79.853977 -39.867243 
L 83.46125 -40.627943 
L 87.068523 -41.464295 
L 90.675795 -42.589568 
L 94.283068 -43.988557 
L 97.890341 -45.463578 
L 101.497614 -47.166315 
L 105.104886 -49.280004 
L 108.712159 -50.953088 
L 112.319432 -53.246974 
L 115.926705 -55.180087 
L 119.533977 -57.520352 
L 123.14125 -60.396263 
L 126.748523 -62.950178 
L 130.355795 -66.250347 
L 133.963068 -69.413658 
L 137.570341 -72.728273 
L 141.177614 -76.423808 
L 144.784886 -80.29954 
L 148.392159 -84.617777 
L 151.999432 -88.373378 
L 155.606705 -92.617484 
L 159.213977 -97.315501 
L 162.82125 -101.37485 
L 166.428523 -105.710574 
L 170.035795 -110.605895 
L 173.643068 -115.487529 
L 177.250341 -119.45602 
L 180.857614 -123.715332 
L 184.464886 -129.037572 
L 188.072159 -133.490386 
L 191.679432 -138.099446 
L 195.286705 -143.712128 
L 198.893977 -148.880784 
L 202.50125 -154.523499 
L 206.108523 -160.255171 
L 209.715795 -164.330106 
L 213.323068 -169.819616 
L 216.930341 -175.492364 
L 220.537614 -181.027113 
L 224.144886 -186.121638 
L 227.752159 -190.288571 
L 231.359432 -195.687223 
L 234.966705 -200.903399 
L 238.573977 -205.852322 
L 242.18125 -210.588355 
L 245.788523 -216.241334 
L 249.395795 -220.777783 
L 253.003068 -224.97513 
L 256.610341 -229.184262 
L 260.217614 -232.836459 
L 263.824886 -237.793365 
L 267.432159 -241.547445 
L 271.039432 -245.138056 
L 274.646705 -248.954862 
L 278.253977 -252.939319 
L 281.86125 -256.087044 
L 285.468523 -258.199593 
L 289.075795 -261.713412 
L 292.683068 -264.419391 
L 296.290341 -267.110924 
L 299.897614 -268.967245 
L 303.504886 -271.961766 
L 307.112159 -274.434706 
L 310.719432 -275.855744 
L 314.326705 -278.121118 
L 317.933977 -279.626171 
L 321.54125 -281.085606 
L 325.148523 -282.287671 
L 328.755795 -283.700346 
L 332.363068 -284.644283 
L 335.970341 -285.63346 
L 339.577614 -286.393399 
L 343.184886 -286.681941 
L 346.792159 -287.594705 
L 350.399432 -287.959278 
L 354.006705 -288.643947 
L 357.613977 -289.343441 
L 361.22125 -289.921664 
L 364.828523 -290.255445 
L 368.435795 -290.712397 
L 372.043068 -291.076971 
L 375.650341 -291.533163 
L 379.257614 -291.761259 
L 382.864886 -292.019007 
L 386.472159 -292.09618 
L 390.079432 -292.491546 
L 393.686705 -292.506752 
L 397.293977 -292.779707 
L 400.90125 -292.916185 
L 400.90125 -295.837334 
L 400.90125 -295.837334 
L 397.293977 -295.68565 
L 393.686705 -295.639271 
L 390.079432 -295.487207 
L 386.472159 -295.365936 
L 382.864886 -295.13746 
L 379.257614 -294.894537 
L 375.650341 -294.681648 
L 372.043068 -294.620442 
L 368.435795 -294.499171 
L 364.828523 -294.073392 
L 361.22125 -293.647613 
L 357.613977 -293.222594 
L 354.006705 -292.917705 
L 350.399432 -292.446307 
L 346.792159 -291.989735 
L 343.184886 -291.457511 
L 339.577614 -291.214969 
L 335.970341 -290.621539 
L 332.363068 -289.861599 
L 328.755795 -289.070486 
L 325.148523 -288.157722 
L 321.54125 -287.36813 
L 317.933977 -286.135271 
L 314.326705 -284.933965 
L 310.719432 -283.658528 
L 307.112159 -282.243193 
L 303.504886 -280.524109 
L 299.897614 -278.076639 
L 296.290341 -276.220698 
L 292.683068 -274.260593 
L 289.075795 -272.038938 
L 285.468523 -269.606294 
L 281.86125 -267.311648 
L 278.253977 -264.027066 
L 274.646705 -261.016959 
L 271.039432 -257.776095 
L 267.432159 -254.144427 
L 263.824886 -250.902042 
L 260.217614 -246.660977 
L 256.610341 -243.146778 
L 253.003068 -239.151296 
L 249.395795 -234.936082 
L 245.788523 -230.450194 
L 242.18125 -226.010686 
L 238.573977 -221.098638 
L 234.966705 -216.262243 
L 231.359432 -211.639497 
L 227.752159 -206.393289 
L 224.144886 -201.756098 
L 220.537614 -196.495063 
L 216.930341 -190.867555 
L 213.323068 -185.81941 
L 209.715795 -181.029774 
L 206.108523 -174.839629 
L 202.50125 -170.049993 
L 198.893977 -163.81803 
L 195.286705 -158.599954 
L 191.679432 -153.05266 
L 188.072159 -147.894649 
L 184.464886 -143.028601 
L 180.857614 -137.068832 
L 177.250341 -133.099202 
L 173.643068 -128.187534 
L 170.035795 -123.168662 
L 166.428523 -118.365341 
L 162.82125 -113.117612 
L 159.213977 -108.662897 
L 155.606705 -103.995673 
L 151.999432 -100.014257 
L 148.392159 -94.763107 
L 144.784886 -90.263153 
L 141.177614 -86.035014 
L 137.570341 -82.309446 
L 133.963068 -78.585398 
L 130.355795 -74.964374 
L 126.748523 -71.133122 
L 123.14125 -67.786953 
L 119.533977 -65.155866 
L 115.926705 -61.7196 
L 112.319432 -58.785905 
L 108.712159 -56.047613 
L 105.104886 -53.629795 
L 101.497614 -51.135945 
L 97.890341 -48.808986 
L 94.283068 -47.029837 
L 90.675795 -44.99256 
L 87.068523 -43.486746 
L 83.46125 -42.361853 
L 79.853977 -41.281818 
L 76.246705 -40.21737 
L 72.639432 -39.472256 
L 69.032159 -38.849174 
L 65.424886 -38.453428 
L 61.817614 -38.10368 
L 58.210341 -37.799552 
L 54.603068 -37.662695 
L 50.995795 -37.632282 
L 47.388523 -37.55625 
L 43.78125 -37.55625 
z
" id="m47df0a46e6" style="stroke:#39ad48;stroke-opacity:0.2;"/>
    </defs>
    <g clip-path="url(#p228fc3259d)">
     <use style="fill:#39ad48;fill-opacity:0.2;stroke:#39ad48;stroke-opacity:0.2;" x="0" xlink:href="#m47df0a46e6" y="314.667469"/>
    </g>
   </g>
   <g id="PolyCollection_7">
    <defs>
     <path d="M 43.78125 -37.55625 
L 43.78125 -37.55625 
L 47.388523 -37.55625 
L 50.995795 -37.55625 
L 54.603068 -37.55625 
L 58.210341 -37.55625 
L 61.817614 -37.55625 
L 65.424886 -37.55625 
L 69.032159 -37.55625 
L 72.639432 -37.55625 
L 76.246705 -37.55625 
L 79.853977 -37.55625 
L 83.46125 -37.55625 
L 87.068523 -37.55625 
L 90.675795 -37.55625 
L 94.283068 -37.55625 
L 97.890341 -37.55625 
L 101.497614 -37.55625 
L 105.104886 -37.55625 
L 108.712159 -37.55625 
L 112.319432 -37.55625 
L 115.926705 -37.55625 
L 119.533977 -37.55625 
L 123.14125 -37.586663 
L 126.748523 -37.601869 
L 130.355795 -37.662695 
L 133.963068 -37.677901 
L 137.570341 -37.708314 
L 141.177614 -37.753933 
L 144.784886 -37.814759 
L 148.392159 -37.860378 
L 151.999432 -37.890791 
L 155.606705 -37.93641 
L 159.213977 -37.997236 
L 162.82125 -38.012062 
L 166.428523 -38.073268 
L 170.035795 -38.134093 
L 173.643068 -38.194919 
L 177.250341 -38.270951 
L 180.857614 -38.286157 
L 184.464886 -38.361809 
L 188.072159 -38.453428 
L 191.679432 -38.559872 
L 195.286705 -38.590285 
L 198.893977 -38.651111 
L 202.50125 -38.711936 
L 206.108523 -38.802795 
L 209.715795 -38.803175 
L 213.323068 -38.90962 
L 216.930341 -38.985271 
L 220.537614 -39.091716 
L 224.144886 -39.228954 
L 227.752159 -39.320192 
L 231.359432 -39.45705 
L 234.966705 -39.487463 
L 238.573977 -39.609114 
L 242.18125 -39.715179 
L 245.788523 -39.83683 
L 249.395795 -39.973687 
L 253.003068 -40.034893 
L 256.610341 -40.126132 
L 260.217614 -40.171751 
L 263.824886 -40.278196 
L 267.432159 -40.339021 
L 271.039432 -40.445466 
L 274.646705 -40.627943 
L 278.253977 -40.703595 
L 281.86125 -40.856039 
L 285.468523 -40.97769 
L 289.075795 -41.008103 
L 292.683068 -41.14496 
L 296.290341 -41.19058 
L 299.897614 -41.236199 
L 303.504886 -41.35785 
L 307.112159 -41.388263 
L 310.719432 -41.464295 
L 314.326705 -41.52512 
L 317.933977 -41.540327 
L 321.54125 -41.661978 
L 325.148523 -41.677184 
L 328.755795 -41.722804 
L 332.363068 -41.829248 
L 335.970341 -41.90528 
L 339.577614 -41.874868 
L 343.184886 -41.920487 
L 346.792159 -41.981312 
L 350.399432 -42.056964 
L 354.006705 -42.072171 
L 357.613977 -42.178996 
L 361.22125 -42.148583 
L 364.828523 -42.28544 
L 368.435795 -42.270234 
L 372.043068 -42.346266 
L 375.650341 -42.33106 
L 379.257614 -42.391505 
L 382.864886 -42.391885 
L 386.472159 -42.391505 
L 390.079432 -42.391885 
L 393.686705 -42.407092 
L 397.293977 -42.407092 
L 400.90125 -42.437124 
L 400.90125 -43.441127 
L 400.90125 -43.441127 
L 397.293977 -43.395888 
L 393.686705 -43.410714 
L 390.079432 -43.380301 
L 386.472159 -43.365095 
L 382.864886 -43.395508 
L 379.257614 -43.380301 
L 375.650341 -43.304269 
L 372.043068 -43.319476 
L 368.435795 -43.273856 
L 364.828523 -43.182618 
L 361.22125 -43.167792 
L 357.613977 -43.076553 
L 354.006705 -43.060967 
L 350.399432 -42.984935 
L 346.792159 -42.924109 
L 343.184886 -42.87849 
L 339.577614 -42.787632 
L 335.970341 -42.787252 
L 332.363068 -42.772045 
L 328.755795 -42.650394 
L 325.148523 -42.574362 
L 321.54125 -42.559156 
L 317.933977 -42.452711 
L 314.326705 -42.407472 
L 310.719432 -42.377059 
L 307.112159 -42.315853 
L 303.504886 -42.270234 
L 299.897614 -42.102964 
L 296.290341 -42.042138 
L 292.683068 -42.011725 
L 289.075795 -41.920487 
L 285.468523 -41.859661 
L 281.86125 -41.722804 
L 278.253977 -41.586326 
L 274.646705 -41.479881 
L 271.039432 -41.35785 
L 267.432159 -41.251785 
L 263.824886 -41.145341 
L 260.217614 -41.053722 
L 256.610341 -41.038516 
L 253.003068 -40.901658 
L 249.395795 -40.81042 
L 245.788523 -40.658356 
L 242.18125 -40.582704 
L 238.573977 -40.536704 
L 234.966705 -40.354228 
L 231.359432 -40.278196 
L 227.752159 -40.187337 
L 224.144886 -40.020067 
L 220.537614 -39.883209 
L 216.930341 -39.700352 
L 213.323068 -39.578701 
L 209.715795 -39.472256 
L 206.108523 -39.426637 
L 202.50125 -39.304986 
L 198.893977 -39.244541 
L 195.286705 -39.213748 
L 191.679432 -39.092096 
L 188.072159 -38.985652 
L 184.464886 -38.894413 
L 180.857614 -38.772762 
L 177.250341 -38.742349 
L 173.643068 -38.620698 
L 170.035795 -38.544666 
L 166.428523 -38.468634 
L 162.82125 -38.407808 
L 159.213977 -38.377396 
L 155.606705 -38.271331 
L 151.999432 -38.210125 
L 148.392159 -38.180093 
L 144.784886 -38.134093 
L 141.177614 -38.058061 
L 137.570341 -37.951616 
L 133.963068 -37.921204 
L 130.355795 -37.875584 
L 126.748523 -37.76914 
L 123.14125 -37.753933 
L 119.533977 -37.677901 
L 115.926705 -37.632282 
L 112.319432 -37.601869 
L 108.712159 -37.55625 
L 105.104886 -37.55625 
L 101.497614 -37.55625 
L 97.890341 -37.55625 
L 94.283068 -37.55625 
L 90.675795 -37.55625 
L 87.068523 -37.55625 
L 83.46125 -37.55625 
L 79.853977 -37.55625 
L 76.246705 -37.55625 
L 72.639432 -37.55625 
L 69.032159 -37.55625 
L 65.424886 -37.55625 
L 61.817614 -37.55625 
L 58.210341 -37.55625 
L 54.603068 -37.55625 
L 50.995795 -37.55625 
L 47.388523 -37.55625 
L 43.78125 -37.55625 
z
" id="m2277e92a29" style="stroke:#000000;stroke-opacity:0.2;"/>
    </defs>
    <g clip-path="url(#p228fc3259d)">
     <use style="fill-opacity:0.2;stroke:#000000;stroke-opacity:0.2;" x="0" xlink:href="#m2277e92a29" y="314.667469"/>
    </g>
   </g>
   <g id="PolyCollection_8">
    <defs>
     <path d="M 43.78125 -37.55625 
L 43.78125 -37.55625 
L 47.388523 -37.632282 
L 50.995795 -37.860378 
L 54.603068 -38.1493 
L 58.210341 -38.514253 
L 61.817614 -39.091716 
L 65.424886 -39.639527 
L 69.032159 -40.278196 
L 72.639432 -40.719181 
L 76.246705 -41.722804 
L 79.853977 -42.635188 
L 83.46125 -44.033416 
L 87.068523 -45.235482 
L 90.675795 -46.375582 
L 94.283068 -47.635812 
L 97.890341 -49.158733 
L 101.497614 -50.405658 
L 105.104886 -51.226423 
L 108.712159 -52.775956 
L 112.319432 -54.311802 
L 115.926705 -55.986027 
L 119.533977 -57.794068 
L 123.14125 -59.057719 
L 126.748523 -60.259405 
L 130.355795 -61.869383 
L 133.963068 -63.103002 
L 137.570341 -64.395546 
L 141.177614 -65.945458 
L 144.784886 -67.740574 
L 148.392159 -68.318417 
L 151.999432 -68.759783 
L 155.606705 -69.975915 
L 159.213977 -70.325662 
L 162.82125 -71.116775 
L 166.428523 -71.375284 
L 170.035795 -71.664205 
L 173.643068 -71.877095 
L 177.250341 -73.047988 
L 180.857614 -73.442214 
L 184.464886 -73.762688 
L 188.072159 -74.766311 
L 191.679432 -75.600002 
L 195.286705 -75.494697 
L 198.893977 -75.769553 
L 202.50125 -75.828858 
L 206.108523 -76.210919 
L 209.715795 -76.438635 
L 213.323068 -76.28619 
L 216.930341 -75.966856 
L 220.537614 -75.617869 
L 224.144886 -75.463904 
L 227.752159 -75.039646 
L 231.359432 -74.461042 
L 234.966705 -74.461042 
L 238.573977 -73.230464 
L 242.18125 -72.180843 
L 245.788523 -71.588173 
L 249.395795 -70.280423 
L 253.003068 -69.139563 
L 256.610341 -67.649716 
L 260.217614 -66.751778 
L 263.824886 -65.779328 
L 267.432159 -64.562436 
L 271.039432 -62.828907 
L 274.646705 -61.034551 
L 278.253977 -59.527977 
L 281.86125 -57.902413 
L 285.468523 -56.791966 
L 289.075795 -55.408564 
L 292.683068 -54.252497 
L 296.290341 -52.822335 
L 299.897614 -51.667409 
L 303.504886 -50.252454 
L 307.112159 -49.158733 
L 310.719432 -48.185143 
L 314.326705 -47.212314 
L 317.933977 -46.389648 
L 321.54125 -45.189102 
L 325.148523 -44.551194 
L 328.755795 -43.835733 
L 332.363068 -43.076173 
L 335.970341 -42.604775 
L 339.577614 -42.28544 
L 343.184886 -42.026932 
L 346.792159 -41.646391 
L 350.399432 -41.114548 
L 354.006705 -40.657595 
L 357.613977 -40.429879 
L 361.22125 -40.049719 
L 364.828523 -39.730765 
L 368.435795 -39.396224 
L 372.043068 -39.168128 
L 375.650341 -39.046477 
L 379.257614 -38.894413 
L 382.864886 -38.681524 
L 386.472159 -38.48384 
L 390.079432 -38.392602 
L 393.686705 -38.331776 
L 397.293977 -38.225332 
L 400.90125 -38.1493 
L 400.90125 -38.803175 
L 400.90125 -38.803175 
L 397.293977 -38.894413 
L 393.686705 -39.061684 
L 390.079432 -39.183335 
L 386.472159 -39.350985 
L 382.864886 -39.639907 
L 379.257614 -39.989654 
L 375.650341 -40.294162 
L 372.043068 -40.491085 
L 368.435795 -40.886452 
L 364.828523 -41.373056 
L 361.22125 -41.783629 
L 357.613977 -42.240962 
L 354.006705 -42.833251 
L 350.399432 -43.395508 
L 346.792159 -43.927732 
L 343.184886 -44.338304 
L 339.577614 -44.718845 
L 335.970341 -45.281101 
L 332.363068 -46.254691 
L 328.755795 -46.954566 
L 325.148523 -47.546855 
L 321.54125 -48.566064 
L 317.933977 -49.874955 
L 314.326705 -50.86185 
L 310.719432 -52.184807 
L 307.112159 -53.264841 
L 303.504886 -54.465767 
L 299.897614 -56.367327 
L 296.290341 -57.385776 
L 292.683068 -58.906796 
L 289.075795 -60.442262 
L 285.468523 -61.522297 
L 281.86125 -62.616397 
L 278.253977 -64.047319 
L 274.646705 -65.399168 
L 271.039432 -67.148285 
L 267.432159 -68.881434 
L 263.824886 -70.144326 
L 260.217614 -70.827853 
L 256.610341 -72.196809 
L 253.003068 -73.626211 
L 249.395795 -74.827136 
L 245.788523 -75.664249 
L 242.18125 -76.424189 
L 238.573977 -77.275747 
L 234.966705 -78.477433 
L 231.359432 -78.628736 
L 227.752159 -79.37385 
L 224.144886 -79.511088 
L 220.537614 -80.043692 
L 216.930341 -80.864077 
L 213.323068 -80.743947 
L 209.715795 -81.122966 
L 206.108523 -81.320649 
L 202.50125 -80.606329 
L 198.893977 -80.712393 
L 195.286705 -80.453504 
L 191.679432 -80.620775 
L 188.072159 -79.725118 
L 184.464886 -78.690322 
L 180.857614 -78.324608 
L 177.250341 -78.218164 
L 173.643068 -76.834761 
L 170.035795 -76.591079 
L 166.428523 -76.211679 
L 162.82125 -75.664249 
L 159.213977 -74.9792 
L 155.606705 -74.614627 
L 151.999432 -73.231225 
L 148.392159 -72.53097 
L 144.784886 -72.562903 
L 141.177614 -70.736615 
L 137.570341 -69.293147 
L 133.963068 -67.80254 
L 130.355795 -66.372758 
L 126.748523 -65.111387 
L 123.14125 -63.864462 
L 119.533977 -62.829287 
L 115.926705 -61.750013 
L 112.319432 -59.81842 
L 108.712159 -57.964379 
L 105.104886 -56.382914 
L 101.497614 -54.937165 
L 97.890341 -53.432492 
L 94.283068 -51.743821 
L 90.675795 -49.964672 
L 87.068523 -48.750822 
L 83.46125 -47.091043 
L 79.853977 -45.479165 
L 76.246705 -43.988937 
L 72.639432 -42.726426 
L 69.032159 -41.814422 
L 65.424886 -40.871625 
L 61.817614 -40.202164 
L 58.210341 -39.320192 
L 54.603068 -38.803175 
L 50.995795 -38.210125 
L 47.388523 -37.829965 
L 43.78125 -37.55625 
z
" id="m0ba4ae1a69" style="stroke:#808080;stroke-opacity:0.2;"/>
    </defs>
    <g clip-path="url(#p228fc3259d)">
     <use style="fill:#808080;fill-opacity:0.2;stroke:#808080;stroke-opacity:0.2;" x="0" xlink:href="#m0ba4ae1a69" y="314.667469"/>
    </g>
   </g>
   <g id="matplotlib.axis_1">
    <g id="xtick_1">
     <g id="line2d_1">
      <defs>
       <path d="M 0 0 
L 0 3.5 
" id="mc41b7748a6" style="stroke:#000000;stroke-width:0.8;"/>
      </defs>
      <g>
       <use style="stroke:#000000;stroke-width:0.8;" x="43.78125" xlink:href="#mc41b7748a6" y="277.111219"/>
      </g>
     </g>
     <g id="text_1">
      <!-- 0 -->
      <defs>
       <path d="M 31.78125 66.40625 
Q 24.171875 66.40625 20.328125 58.90625 
Q 16.5 51.421875 16.5 36.375 
Q 16.5 21.390625 20.328125 13.890625 
Q 24.171875 6.390625 31.78125 6.390625 
Q 39.453125 6.390625 43.28125 13.890625 
Q 47.125 21.390625 47.125 36.375 
Q 47.125 51.421875 43.28125 58.90625 
Q 39.453125 66.40625 31.78125 66.40625 
z
M 31.78125 74.21875 
Q 44.046875 74.21875 50.515625 64.515625 
Q 56.984375 54.828125 56.984375 36.375 
Q 56.984375 17.96875 50.515625 8.265625 
Q 44.046875 -1.421875 31.78125 -1.421875 
Q 19.53125 -1.421875 13.0625 8.265625 
Q 6.59375 17.96875 6.59375 36.375 
Q 6.59375 54.828125 13.0625 64.515625 
Q 19.53125 74.21875 31.78125 74.21875 
z
" id="DejaVuSans-48"/>
      </defs>
      <g transform="translate(40.6 291.709656)scale(0.1 -0.1)">
       <use xlink:href="#DejaVuSans-48"/>
      </g>
     </g>
    </g>
    <g id="xtick_2">
     <g id="line2d_2">
      <g>
       <use style="stroke:#000000;stroke-width:0.8;" x="115.20525" xlink:href="#mc41b7748a6" y="277.111219"/>
      </g>
     </g>
     <g id="text_2">
      <!-- 20 -->
      <defs>
       <path d="M 19.1875 8.296875 
L 53.609375 8.296875 
L 53.609375 0 
L 7.328125 0 
L 7.328125 8.296875 
Q 12.9375 14.109375 22.625 23.890625 
Q 32.328125 33.6875 34.8125 36.53125 
Q 39.546875 41.84375 41.421875 45.53125 
Q 43.3125 49.21875 43.3125 52.78125 
Q 43.3125 58.59375 39.234375 62.25 
Q 35.15625 65.921875 28.609375 65.921875 
Q 23.96875 65.921875 18.8125 64.3125 
Q 13.671875 62.703125 7.8125 59.421875 
L 7.8125 69.390625 
Q 13.765625 71.78125 18.9375 73 
Q 24.125 74.21875 28.421875 74.21875 
Q 39.75 74.21875 46.484375 68.546875 
Q 53.21875 62.890625 53.21875 53.421875 
Q 53.21875 48.921875 51.53125 44.890625 
Q 49.859375 40.875 45.40625 35.40625 
Q 44.1875 33.984375 37.640625 27.21875 
Q 31.109375 20.453125 19.1875 8.296875 
z
" id="DejaVuSans-50"/>
      </defs>
      <g transform="translate(108.84275 291.709656)scale(0.1 -0.1)">
       <use xlink:href="#DejaVuSans-50"/>
       <use x="63.623047" xlink:href="#DejaVuSans-48"/>
      </g>
     </g>
    </g>
    <g id="xtick_3">
     <g id="line2d_3">
      <g>
       <use style="stroke:#000000;stroke-width:0.8;" x="186.62925" xlink:href="#mc41b7748a6" y="277.111219"/>
      </g>
     </g>
     <g id="text_3">
      <!-- 40 -->
      <defs>
       <path d="M 37.796875 64.3125 
L 12.890625 25.390625 
L 37.796875 25.390625 
z
M 35.203125 72.90625 
L 47.609375 72.90625 
L 47.609375 25.390625 
L 58.015625 25.390625 
L 58.015625 17.1875 
L 47.609375 17.1875 
L 47.609375 0 
L 37.796875 0 
L 37.796875 17.1875 
L 4.890625 17.1875 
L 4.890625 26.703125 
z
" id="DejaVuSans-52"/>
      </defs>
      <g transform="translate(180.26675 291.709656)scale(0.1 -0.1)">
       <use xlink:href="#DejaVuSans-52"/>
       <use x="63.623047" xlink:href="#DejaVuSans-48"/>
      </g>
     </g>
    </g>
    <g id="xtick_4">
     <g id="line2d_4">
      <g>
       <use style="stroke:#000000;stroke-width:0.8;" x="258.05325" xlink:href="#mc41b7748a6" y="277.111219"/>
      </g>
     </g>
     <g id="text_4">
      <!-- 60 -->
      <defs>
       <path d="M 33.015625 40.375 
Q 26.375 40.375 22.484375 35.828125 
Q 18.609375 31.296875 18.609375 23.390625 
Q 18.609375 15.53125 22.484375 10.953125 
Q 26.375 6.390625 33.015625 6.390625 
Q 39.65625 6.390625 43.53125 10.953125 
Q 47.40625 15.53125 47.40625 23.390625 
Q 47.40625 31.296875 43.53125 35.828125 
Q 39.65625 40.375 33.015625 40.375 
z
M 52.59375 71.296875 
L 52.59375 62.3125 
Q 48.875 64.0625 45.09375 64.984375 
Q 41.3125 65.921875 37.59375 65.921875 
Q 27.828125 65.921875 22.671875 59.328125 
Q 17.53125 52.734375 16.796875 39.40625 
Q 19.671875 43.65625 24.015625 45.921875 
Q 28.375 48.1875 33.59375 48.1875 
Q 44.578125 48.1875 50.953125 41.515625 
Q 57.328125 34.859375 57.328125 23.390625 
Q 57.328125 12.15625 50.6875 5.359375 
Q 44.046875 -1.421875 33.015625 -1.421875 
Q 20.359375 -1.421875 13.671875 8.265625 
Q 6.984375 17.96875 6.984375 36.375 
Q 6.984375 53.65625 15.1875 63.9375 
Q 23.390625 74.21875 37.203125 74.21875 
Q 40.921875 74.21875 44.703125 73.484375 
Q 48.484375 72.75 52.59375 71.296875 
z
" id="DejaVuSans-54"/>
      </defs>
      <g transform="translate(251.69075 291.709656)scale(0.1 -0.1)">
       <use xlink:href="#DejaVuSans-54"/>
       <use x="63.623047" xlink:href="#DejaVuSans-48"/>
      </g>
     </g>
    </g>
    <g id="xtick_5">
     <g id="line2d_5">
      <g>
       <use style="stroke:#000000;stroke-width:0.8;" x="329.47725" xlink:href="#mc41b7748a6" y="277.111219"/>
      </g>
     </g>
     <g id="text_5">
      <!-- 80 -->
      <defs>
       <path d="M 31.78125 34.625 
Q 24.75 34.625 20.71875 30.859375 
Q 16.703125 27.09375 16.703125 20.515625 
Q 16.703125 13.921875 20.71875 10.15625 
Q 24.75 6.390625 31.78125 6.390625 
Q 38.8125 6.390625 42.859375 10.171875 
Q 46.921875 13.96875 46.921875 20.515625 
Q 46.921875 27.09375 42.890625 30.859375 
Q 38.875 34.625 31.78125 34.625 
z
M 21.921875 38.8125 
Q 15.578125 40.375 12.03125 44.71875 
Q 8.5 49.078125 8.5 55.328125 
Q 8.5 64.0625 14.71875 69.140625 
Q 20.953125 74.21875 31.78125 74.21875 
Q 42.671875 74.21875 48.875 69.140625 
Q 55.078125 64.0625 55.078125 55.328125 
Q 55.078125 49.078125 51.53125 44.71875 
Q 48 40.375 41.703125 38.8125 
Q 48.828125 37.15625 52.796875 32.3125 
Q 56.78125 27.484375 56.78125 20.515625 
Q 56.78125 9.90625 50.3125 4.234375 
Q 43.84375 -1.421875 31.78125 -1.421875 
Q 19.734375 -1.421875 13.25 4.234375 
Q 6.78125 9.90625 6.78125 20.515625 
Q 6.78125 27.484375 10.78125 32.3125 
Q 14.796875 37.15625 21.921875 38.8125 
z
M 18.3125 54.390625 
Q 18.3125 48.734375 21.84375 45.5625 
Q 25.390625 42.390625 31.78125 42.390625 
Q 38.140625 42.390625 41.71875 45.5625 
Q 45.3125 48.734375 45.3125 54.390625 
Q 45.3125 60.0625 41.71875 63.234375 
Q 38.140625 66.40625 31.78125 66.40625 
Q 25.390625 66.40625 21.84375 63.234375 
Q 18.3125 60.0625 18.3125 54.390625 
z
" id="DejaVuSans-56"/>
      </defs>
      <g transform="translate(323.11475 291.709656)scale(0.1 -0.1)">
       <use xlink:href="#DejaVuSans-56"/>
       <use x="63.623047" xlink:href="#DejaVuSans-48"/>
      </g>
     </g>
    </g>
    <g id="xtick_6">
     <g id="line2d_6">
      <g>
       <use style="stroke:#000000;stroke-width:0.8;" x="400.90125" xlink:href="#mc41b7748a6" y="277.111219"/>
      </g>
     </g>
     <g id="text_6">
      <!-- 100 -->
      <defs>
       <path d="M 12.40625 8.296875 
L 28.515625 8.296875 
L 28.515625 63.921875 
L 10.984375 60.40625 
L 10.984375 69.390625 
L 28.421875 72.90625 
L 38.28125 72.90625 
L 38.28125 8.296875 
L 54.390625 8.296875 
L 54.390625 0 
L 12.40625 0 
z
" id="DejaVuSans-49"/>
      </defs>
      <g transform="translate(391.3575 291.709656)scale(0.1 -0.1)">
       <use xlink:href="#DejaVuSans-49"/>
       <use x="63.623047" xlink:href="#DejaVuSans-48"/>
       <use x="127.246094" xlink:href="#DejaVuSans-48"/>
      </g>
     </g>
    </g>
    <g id="text_7">
     <!-- Time -->
     <defs>
      <path d="M -0.296875 72.90625 
L 61.375 72.90625 
L 61.375 64.59375 
L 35.5 64.59375 
L 35.5 0 
L 25.59375 0 
L 25.59375 64.59375 
L -0.296875 64.59375 
z
" id="DejaVuSans-84"/>
      <path d="M 9.421875 54.6875 
L 18.40625 54.6875 
L 18.40625 0 
L 9.421875 0 
z
M 9.421875 75.984375 
L 18.40625 75.984375 
L 18.40625 64.59375 
L 9.421875 64.59375 
z
" id="DejaVuSans-105"/>
      <path d="M 52 44.1875 
Q 55.375 50.25 60.0625 53.125 
Q 64.75 56 71.09375 56 
Q 79.640625 56 84.28125 50.015625 
Q 88.921875 44.046875 88.921875 33.015625 
L 88.921875 0 
L 79.890625 0 
L 79.890625 32.71875 
Q 79.890625 40.578125 77.09375 44.375 
Q 74.3125 48.1875 68.609375 48.1875 
Q 61.625 48.1875 57.5625 43.546875 
Q 53.515625 38.921875 53.515625 30.90625 
L 53.515625 0 
L 44.484375 0 
L 44.484375 32.71875 
Q 44.484375 40.625 41.703125 44.40625 
Q 38.921875 48.1875 33.109375 48.1875 
Q 26.21875 48.1875 22.15625 43.53125 
Q 18.109375 38.875 18.109375 30.90625 
L 18.109375 0 
L 9.078125 0 
L 9.078125 54.6875 
L 18.109375 54.6875 
L 18.109375 46.1875 
Q 21.1875 51.21875 25.484375 53.609375 
Q 29.78125 56 35.6875 56 
Q 41.65625 56 45.828125 52.96875 
Q 50 49.953125 52 44.1875 
z
" id="DejaVuSans-109"/>
      <path d="M 56.203125 29.59375 
L 56.203125 25.203125 
L 14.890625 25.203125 
Q 15.484375 15.921875 20.484375 11.0625 
Q 25.484375 6.203125 34.421875 6.203125 
Q 39.59375 6.203125 44.453125 7.46875 
Q 49.3125 8.734375 54.109375 11.28125 
L 54.109375 2.78125 
Q 49.265625 0.734375 44.1875 -0.34375 
Q 39.109375 -1.421875 33.890625 -1.421875 
Q 20.796875 -1.421875 13.15625 6.1875 
Q 5.515625 13.8125 5.515625 26.8125 
Q 5.515625 40.234375 12.765625 48.109375 
Q 20.015625 56 32.328125 56 
Q 43.359375 56 49.78125 48.890625 
Q 56.203125 41.796875 56.203125 29.59375 
z
M 47.21875 32.234375 
Q 47.125 39.59375 43.09375 43.984375 
Q 39.0625 48.390625 32.421875 48.390625 
Q 24.90625 48.390625 20.390625 44.140625 
Q 15.875 39.890625 15.1875 32.171875 
z
" id="DejaVuSans-101"/>
     </defs>
     <g transform="translate(209.95375 305.387781)scale(0.1 -0.1)">
      <use xlink:href="#DejaVuSans-84"/>
      <use x="61.037109" xlink:href="#DejaVuSans-105"/>
      <use x="88.820312" xlink:href="#DejaVuSans-109"/>
      <use x="186.232422" xlink:href="#DejaVuSans-101"/>
     </g>
    </g>
   </g>
   <g id="matplotlib.axis_2">
    <g id="ytick_1">
     <g id="line2d_7">
      <defs>
       <path d="M 0 0 
L -3.5 0 
" id="mfe05be5af0" style="stroke:#000000;stroke-width:0.8;"/>
      </defs>
      <g>
       <use style="stroke:#000000;stroke-width:0.8;" x="43.78125" xlink:href="#mfe05be5af0" y="277.111219"/>
      </g>
     </g>
     <g id="text_8">
      <!-- 0.0 -->
      <defs>
       <path d="M 10.6875 12.40625 
L 21 12.40625 
L 21 0 
L 10.6875 0 
z
" id="DejaVuSans-46"/>
      </defs>
      <g transform="translate(20.878125 280.910437)scale(0.1 -0.1)">
       <use xlink:href="#DejaVuSans-48"/>
       <use x="63.623047" xlink:href="#DejaVuSans-46"/>
       <use x="95.410156" xlink:href="#DejaVuSans-48"/>
      </g>
     </g>
    </g>
    <g id="ytick_2">
     <g id="line2d_8">
      <g>
       <use style="stroke:#000000;stroke-width:0.8;" x="43.78125" xlink:href="#mfe05be5af0" y="223.888819"/>
      </g>
     </g>
     <g id="text_9">
      <!-- 0.2 -->
      <g transform="translate(20.878125 227.688037)scale(0.1 -0.1)">
       <use xlink:href="#DejaVuSans-48"/>
       <use x="63.623047" xlink:href="#DejaVuSans-46"/>
       <use x="95.410156" xlink:href="#DejaVuSans-50"/>
      </g>
     </g>
    </g>
    <g id="ytick_3">
     <g id="line2d_9">
      <g>
       <use style="stroke:#000000;stroke-width:0.8;" x="43.78125" xlink:href="#mfe05be5af0" y="170.666419"/>
      </g>
     </g>
     <g id="text_10">
      <!-- 0.4 -->
      <g transform="translate(20.878125 174.465637)scale(0.1 -0.1)">
       <use xlink:href="#DejaVuSans-48"/>
       <use x="63.623047" xlink:href="#DejaVuSans-46"/>
       <use x="95.410156" xlink:href="#DejaVuSans-52"/>
      </g>
     </g>
    </g>
    <g id="ytick_4">
     <g id="line2d_10">
      <g>
       <use style="stroke:#000000;stroke-width:0.8;" x="43.78125" xlink:href="#mfe05be5af0" y="117.444019"/>
      </g>
     </g>
     <g id="text_11">
      <!-- 0.6 -->
      <g transform="translate(20.878125 121.243237)scale(0.1 -0.1)">
       <use xlink:href="#DejaVuSans-48"/>
       <use x="63.623047" xlink:href="#DejaVuSans-46"/>
       <use x="95.410156" xlink:href="#DejaVuSans-54"/>
      </g>
     </g>
    </g>
    <g id="ytick_5">
     <g id="line2d_11">
      <g>
       <use style="stroke:#000000;stroke-width:0.8;" x="43.78125" xlink:href="#mfe05be5af0" y="64.221619"/>
      </g>
     </g>
     <g id="text_12">
      <!-- 0.8 -->
      <g transform="translate(20.878125 68.020837)scale(0.1 -0.1)">
       <use xlink:href="#DejaVuSans-48"/>
       <use x="63.623047" xlink:href="#DejaVuSans-46"/>
       <use x="95.410156" xlink:href="#DejaVuSans-56"/>
      </g>
     </g>
    </g>
    <g id="ytick_6">
     <g id="line2d_12">
      <g>
       <use style="stroke:#000000;stroke-width:0.8;" x="43.78125" xlink:href="#mfe05be5af0" y="10.999219"/>
      </g>
     </g>
     <g id="text_13">
      <!-- 1.0 -->
      <g transform="translate(20.878125 14.798437)scale(0.1 -0.1)">
       <use xlink:href="#DejaVuSans-49"/>
       <use x="63.623047" xlink:href="#DejaVuSans-46"/>
       <use x="95.410156" xlink:href="#DejaVuSans-48"/>
      </g>
     </g>
    </g>
    <g id="text_14">
     <!-- Fraction -->
     <defs>
      <path d="M 9.8125 72.90625 
L 51.703125 72.90625 
L 51.703125 64.59375 
L 19.671875 64.59375 
L 19.671875 43.109375 
L 48.578125 43.109375 
L 48.578125 34.8125 
L 19.671875 34.8125 
L 19.671875 0 
L 9.8125 0 
z
" id="DejaVuSans-70"/>
      <path d="M 41.109375 46.296875 
Q 39.59375 47.171875 37.8125 47.578125 
Q 36.03125 48 33.890625 48 
Q 26.265625 48 22.1875 43.046875 
Q 18.109375 38.09375 18.109375 28.8125 
L 18.109375 0 
L 9.078125 0 
L 9.078125 54.6875 
L 18.109375 54.6875 
L 18.109375 46.1875 
Q 20.953125 51.171875 25.484375 53.578125 
Q 30.03125 56 36.53125 56 
Q 37.453125 56 38.578125 55.875 
Q 39.703125 55.765625 41.0625 55.515625 
z
" id="DejaVuSans-114"/>
      <path d="M 34.28125 27.484375 
Q 23.390625 27.484375 19.1875 25 
Q 14.984375 22.515625 14.984375 16.5 
Q 14.984375 11.71875 18.140625 8.90625 
Q 21.296875 6.109375 26.703125 6.109375 
Q 34.1875 6.109375 38.703125 11.40625 
Q 43.21875 16.703125 43.21875 25.484375 
L 43.21875 27.484375 
z
M 52.203125 31.203125 
L 52.203125 0 
L 43.21875 0 
L 43.21875 8.296875 
Q 40.140625 3.328125 35.546875 0.953125 
Q 30.953125 -1.421875 24.3125 -1.421875 
Q 15.921875 -1.421875 10.953125 3.296875 
Q 6 8.015625 6 15.921875 
Q 6 25.140625 12.171875 29.828125 
Q 18.359375 34.515625 30.609375 34.515625 
L 43.21875 34.515625 
L 43.21875 35.40625 
Q 43.21875 41.609375 39.140625 45 
Q 35.0625 48.390625 27.6875 48.390625 
Q 23 48.390625 18.546875 47.265625 
Q 14.109375 46.140625 10.015625 43.890625 
L 10.015625 52.203125 
Q 14.9375 54.109375 19.578125 55.046875 
Q 24.21875 56 28.609375 56 
Q 40.484375 56 46.34375 49.84375 
Q 52.203125 43.703125 52.203125 31.203125 
z
" id="DejaVuSans-97"/>
      <path d="M 48.78125 52.59375 
L 48.78125 44.1875 
Q 44.96875 46.296875 41.140625 47.34375 
Q 37.3125 48.390625 33.40625 48.390625 
Q 24.65625 48.390625 19.8125 42.84375 
Q 14.984375 37.3125 14.984375 27.296875 
Q 14.984375 17.28125 19.8125 11.734375 
Q 24.65625 6.203125 33.40625 6.203125 
Q 37.3125 6.203125 41.140625 7.25 
Q 44.96875 8.296875 48.78125 10.40625 
L 48.78125 2.09375 
Q 45.015625 0.34375 40.984375 -0.53125 
Q 36.96875 -1.421875 32.421875 -1.421875 
Q 20.0625 -1.421875 12.78125 6.34375 
Q 5.515625 14.109375 5.515625 27.296875 
Q 5.515625 40.671875 12.859375 48.328125 
Q 20.21875 56 33.015625 56 
Q 37.15625 56 41.109375 55.140625 
Q 45.0625 54.296875 48.78125 52.59375 
z
" id="DejaVuSans-99"/>
      <path d="M 18.3125 70.21875 
L 18.3125 54.6875 
L 36.8125 54.6875 
L 36.8125 47.703125 
L 18.3125 47.703125 
L 18.3125 18.015625 
Q 18.3125 11.328125 20.140625 9.421875 
Q 21.96875 7.515625 27.59375 7.515625 
L 36.8125 7.515625 
L 36.8125 0 
L 27.59375 0 
Q 17.1875 0 13.234375 3.875 
Q 9.28125 7.765625 9.28125 18.015625 
L 9.28125 47.703125 
L 2.6875 47.703125 
L 2.6875 54.6875 
L 9.28125 54.6875 
L 9.28125 70.21875 
z
" id="DejaVuSans-116"/>
      <path d="M 30.609375 48.390625 
Q 23.390625 48.390625 19.1875 42.75 
Q 14.984375 37.109375 14.984375 27.296875 
Q 14.984375 17.484375 19.15625 11.84375 
Q 23.34375 6.203125 30.609375 6.203125 
Q 37.796875 6.203125 41.984375 11.859375 
Q 46.1875 17.53125 46.1875 27.296875 
Q 46.1875 37.015625 41.984375 42.703125 
Q 37.796875 48.390625 30.609375 48.390625 
z
M 30.609375 56 
Q 42.328125 56 49.015625 48.375 
Q 55.71875 40.765625 55.71875 27.296875 
Q 55.71875 13.875 49.015625 6.21875 
Q 42.328125 -1.421875 30.609375 -1.421875 
Q 18.84375 -1.421875 12.171875 6.21875 
Q 5.515625 13.875 5.515625 27.296875 
Q 5.515625 40.765625 12.171875 48.375 
Q 18.84375 56 30.609375 56 
z
" id="DejaVuSans-111"/>
      <path d="M 54.890625 33.015625 
L 54.890625 0 
L 45.90625 0 
L 45.90625 32.71875 
Q 45.90625 40.484375 42.875 44.328125 
Q 39.84375 48.1875 33.796875 48.1875 
Q 26.515625 48.1875 22.3125 43.546875 
Q 18.109375 38.921875 18.109375 30.90625 
L 18.109375 0 
L 9.078125 0 
L 9.078125 54.6875 
L 18.109375 54.6875 
L 18.109375 46.1875 
Q 21.34375 51.125 25.703125 53.5625 
Q 30.078125 56 35.796875 56 
Q 45.21875 56 50.046875 50.171875 
Q 54.890625 44.34375 54.890625 33.015625 
z
" id="DejaVuSans-110"/>
     </defs>
     <g transform="translate(14.798438 164.371625)rotate(-90)scale(0.1 -0.1)">
      <use xlink:href="#DejaVuSans-70"/>
      <use x="57.410156" xlink:href="#DejaVuSans-114"/>
      <use x="98.523438" xlink:href="#DejaVuSans-97"/>
      <use x="159.802734" xlink:href="#DejaVuSans-99"/>
      <use x="214.783203" xlink:href="#DejaVuSans-116"/>
      <use x="253.992188" xlink:href="#DejaVuSans-105"/>
      <use x="281.775391" xlink:href="#DejaVuSans-111"/>
      <use x="342.957031" xlink:href="#DejaVuSans-110"/>
     </g>
    </g>
   </g>
   <g id="line2d_13">
    <path clip-path="url(#p228fc3259d)" d="M 43.78125 11.759539 
L 47.388523 12.063667 
L 50.995795 13.02167 
L 54.603068 14.359833 
L 58.210341 15.865267 
L 61.817614 17.522764 
L 65.424886 19.530009 
L 69.032159 21.430809 
L 72.639432 24.091929 
L 76.246705 26.844288 
L 79.853977 30.645888 
L 83.46125 34.842854 
L 87.068523 38.674867 
L 90.675795 42.522086 
L 94.283068 46.658227 
L 97.890341 50.900812 
L 101.497614 54.991334 
L 105.104886 59.036236 
L 108.712159 63.887078 
L 112.319432 68.31214 
L 115.926705 73.315046 
L 119.533977 78.105062 
L 123.14125 83.260032 
L 126.748523 88.521446 
L 130.355795 94.041369 
L 133.963068 99.713356 
L 137.570341 105.172454 
L 141.177614 111.148569 
L 144.784886 116.63808 
L 148.392159 122.081971 
L 151.999432 127.191321 
L 155.606705 132.407116 
L 159.213977 137.729356 
L 162.82125 143.20366 
L 166.428523 148.297804 
L 170.035795 153.726489 
L 173.643068 159.59616 
L 177.250341 165.724339 
L 180.857614 171.502771 
L 184.464886 177.098726 
L 188.072159 183.090048 
L 191.679432 188.625177 
L 195.286705 194.418816 
L 198.893977 200.136422 
L 202.50125 205.504281 
L 206.108523 210.476774 
L 209.715795 215.570918 
L 213.323068 220.0416 
L 216.930341 224.542694 
L 220.537614 229.256678 
L 224.144886 233.362406 
L 227.752159 236.631782 
L 231.359432 240.585446 
L 234.966705 244.447872 
L 238.573977 247.595596 
L 242.18125 250.743321 
L 245.788523 253.66295 
L 249.395795 256.400102 
L 253.003068 258.7723 
L 256.610341 260.657894 
L 260.217614 262.330598 
L 263.824886 263.988096 
L 267.432159 265.493529 
L 271.039432 266.75566 
L 274.646705 267.865728 
L 278.253977 268.762905 
L 281.86125 269.614464 
L 285.468523 270.435609 
L 289.075795 270.98304 
L 292.683068 271.302374 
L 296.290341 271.576089 
L 299.897614 272.138726 
L 303.504886 272.488473 
L 307.112159 272.716569 
L 310.719432 273.096729 
L 314.326705 273.400857 
L 317.933977 273.492096 
L 321.54125 273.613747 
L 325.148523 273.704985 
L 328.755795 273.765811 
L 332.363068 273.781017 
L 335.970341 273.826636 
L 339.577614 273.872256 
L 343.184886 273.887462 
L 346.792159 273.9787 
L 350.399432 274.02432 
L 354.006705 274.069939 
L 357.613977 274.085145 
L 361.22125 274.145971 
L 364.828523 274.161177 
L 368.435795 274.161177 
L 372.043068 274.161177 
L 375.650341 274.176384 
L 379.257614 274.176384 
L 382.864886 274.176384 
L 386.472159 274.176384 
L 390.079432 274.176384 
L 393.686705 274.176384 
L 397.293977 274.176384 
L 400.90125 274.176384 
" style="fill:none;stroke:#3b5b92;stroke-linecap:square;stroke-width:1.5;"/>
   </g>
   <g id="line2d_14">
    <path clip-path="url(#p228fc3259d)" d="M 43.78125 276.350899 
L 47.388523 276.214041 
L 50.995795 275.575372 
L 54.603068 274.693401 
L 58.210341 273.750604 
L 61.817614 273.020697 
L 65.424886 271.880217 
L 69.032159 271.119897 
L 72.639432 269.62967 
L 76.246705 268.595635 
L 79.853977 266.96855 
L 83.46125 265.128576 
L 87.068523 263.820825 
L 90.675795 262.497868 
L 94.283068 261.357388 
L 97.890341 260.429798 
L 101.497614 259.851955 
L 105.104886 259.289318 
L 108.712159 258.0576 
L 112.319432 257.494963 
L 115.926705 256.993152 
L 119.533977 256.354483 
L 123.14125 255.39648 
L 126.748523 254.484096 
L 130.355795 253.845427 
L 133.963068 252.963456 
L 137.570341 252.659328 
L 141.177614 251.959833 
L 144.784886 252.14231 
L 148.392159 251.640499 
L 151.999432 251.914214 
L 155.606705 252.096691 
L 159.213977 251.59488 
L 162.82125 251.290752 
L 166.428523 251.336371 
L 170.035795 251.017036 
L 173.643068 250.317542 
L 177.250341 249.937382 
L 180.857614 249.283507 
L 184.464886 248.903347 
L 188.072159 249.10103 
L 191.679432 249.496396 
L 195.286705 249.329126 
L 198.893977 249.207475 
L 202.50125 249.389952 
L 206.108523 250.02862 
L 209.715795 250.606464 
L 213.323068 251.427609 
L 216.930341 251.990246 
L 220.537614 252.400819 
L 224.144886 253.009075 
L 227.752159 254.63616 
L 231.359432 255.153177 
L 234.966705 256.11118 
L 238.573977 256.901913 
L 242.18125 257.601408 
L 245.788523 259.122048 
L 249.395795 260.064844 
L 253.003068 260.901196 
L 256.610341 261.965644 
L 260.217614 263.151744 
L 263.824886 264.505113 
L 267.432159 265.295846 
L 271.039432 266.193024 
L 274.646705 267.18144 
L 278.253977 268.2763 
L 281.86125 269.310336 
L 285.468523 269.964211 
L 289.075795 270.815769 
L 292.683068 271.591296 
L 296.290341 272.351616 
L 299.897614 272.88384 
L 303.504886 273.370444 
L 307.112159 273.933081 
L 310.719432 274.252416 
L 314.326705 274.434892 
L 317.933977 274.830259 
L 321.54125 275.088768 
L 325.148523 275.468928 
L 328.755795 275.757849 
L 332.363068 276.001152 
L 335.970341 276.153216 
L 339.577614 276.244454 
L 343.184886 276.350899 
L 346.792159 276.426931 
L 350.399432 276.487756 
L 354.006705 276.563788 
L 357.613977 276.670233 
L 361.22125 276.68544 
L 364.828523 276.746265 
L 368.435795 276.822297 
L 372.043068 276.837504 
L 375.650341 276.898329 
L 379.257614 276.959155 
L 382.864886 276.959155 
L 386.472159 276.974361 
L 390.079432 276.989568 
L 393.686705 277.050393 
L 397.293977 277.050393 
L 400.90125 277.0656 
" style="fill:none;stroke:#ff5b00;stroke-linecap:square;stroke-width:1.5;"/>
   </g>
   <g id="line2d_15">
    <path clip-path="url(#p228fc3259d)" d="M 43.78125 277.111219 
L 47.388523 276.943948 
L 50.995795 276.655027 
L 54.603068 276.214041 
L 58.210341 275.788262 
L 61.817614 275.103974 
L 65.424886 274.526131 
L 69.032159 273.796224 
L 72.639432 273.172761 
L 76.246705 272.138726 
L 79.853977 270.998246 
L 83.46125 269.690496 
L 87.068523 268.428364 
L 90.675795 267.379123 
L 94.283068 266.20823 
L 97.890341 264.90048 
L 101.497614 263.607936 
L 105.104886 262.528281 
L 108.712159 261.387801 
L 112.319432 259.973606 
L 115.926705 258.407347 
L 119.533977 257.236454 
L 123.14125 256.339276 
L 126.748523 255.290035 
L 130.355795 254.179968 
L 133.963068 253.11552 
L 137.570341 252.020659 
L 141.177614 250.83456 
L 144.784886 249.389952 
L 148.392159 249.344332 
L 151.999432 249.146649 
L 155.606705 248.112614 
L 159.213977 248.279884 
L 162.82125 248.097408 
L 166.428523 247.869312 
L 170.035795 247.58039 
L 173.643068 247.565184 
L 177.250341 246.379084 
L 180.857614 246.090163 
L 184.464886 245.649177 
L 188.072159 244.91927 
L 191.679432 244.052505 
L 195.286705 243.99168 
L 198.893977 244.037299 
L 202.50125 244.174156 
L 206.108523 243.717964 
L 209.715795 243.733171 
L 213.323068 244.219776 
L 216.930341 244.508697 
L 220.537614 244.752 
L 224.144886 245.08654 
L 227.752159 245.421081 
L 231.359432 246.257433 
L 234.966705 246.05975 
L 238.573977 247.124198 
L 242.18125 247.854105 
L 245.788523 248.5536 
L 249.395795 249.435571 
L 253.003068 250.728115 
L 256.610341 251.92942 
L 260.217614 252.887424 
L 263.824886 253.617331 
L 267.432159 254.666572 
L 271.039432 256.293657 
L 274.646705 257.859916 
L 278.253977 259.182873 
L 281.86125 260.064844 
L 285.468523 260.992435 
L 289.075795 262.19374 
L 292.683068 263.486284 
L 296.290341 265.006924 
L 299.897614 265.980134 
L 303.504886 267.074995 
L 307.112159 268.048204 
L 310.719432 268.975795 
L 314.326705 269.84256 
L 317.933977 270.466022 
L 321.54125 271.332787 
L 325.148523 271.91063 
L 328.755795 272.382028 
L 332.363068 272.868633 
L 335.970341 273.400857 
L 339.577614 273.735398 
L 343.184886 274.069939 
L 346.792159 274.176384 
L 350.399432 274.374067 
L 354.006705 274.678195 
L 357.613977 274.860672 
L 361.22125 275.180006 
L 364.828523 275.377689 
L 368.435795 275.666611 
L 372.043068 275.8795 
L 375.650341 275.970739 
L 379.257614 276.168422 
L 382.864886 276.366105 
L 386.472159 276.47255 
L 390.079432 276.518169 
L 393.686705 276.518169 
L 397.293977 276.609408 
L 400.90125 276.670233 
" style="fill:none;stroke:#ff474c;stroke-linecap:square;stroke-width:1.5;"/>
   </g>
   <g id="line2d_16">
    <path clip-path="url(#p228fc3259d)" d="M 43.78125 277.111219 
L 47.388523 277.111219 
L 50.995795 277.111219 
L 54.603068 277.111219 
L 58.210341 277.096012 
L 61.817614 277.0656 
L 65.424886 277.01998 
L 69.032159 276.959155 
L 72.639432 276.928742 
L 76.246705 276.837504 
L 79.853977 276.791884 
L 83.46125 276.655027 
L 87.068523 276.426931 
L 90.675795 276.25966 
L 94.283068 276.061977 
L 97.890341 275.833881 
L 101.497614 275.636198 
L 105.104886 275.605785 
L 108.712159 275.362483 
L 112.319432 275.301657 
L 115.926705 274.997529 
L 119.533977 274.78464 
L 123.14125 274.526131 
L 126.748523 274.389273 
L 130.355795 274.19159 
L 133.963068 273.948288 
L 137.570341 273.735398 
L 141.177614 273.416064 
L 144.784886 273.248793 
L 148.392159 272.83822 
L 151.999432 272.518886 
L 155.606705 272.45806 
L 159.213977 271.956249 
L 162.82125 271.378406 
L 166.428523 271.271961 
L 170.035795 271.287168 
L 173.643068 271.256755 
L 177.250341 271.226342 
L 180.857614 271.3632 
L 184.464886 271.500057 
L 188.072159 271.347993 
L 191.679432 271.424025 
L 195.286705 271.469644 
L 198.893977 271.3632 
L 202.50125 271.089484 
L 206.108523 271.043865 
L 209.715795 270.952627 
L 213.323068 270.724531 
L 216.930341 270.815769 
L 220.537614 270.998246 
L 224.144886 271.104691 
L 227.752159 270.98304 
L 231.359432 270.876595 
L 234.966705 271.135104 
L 238.573977 271.332787 
L 242.18125 271.439232 
L 245.788523 271.576089 
L 249.395795 271.728153 
L 253.003068 271.758566 
L 256.610341 271.956249 
L 260.217614 272.29079 
L 263.824886 272.427648 
L 267.432159 272.50368 
L 271.039432 272.686156 
L 274.646705 272.746982 
L 278.253977 272.731776 
L 281.86125 273.187968 
L 285.468523 273.340032 
L 289.075795 273.385651 
L 292.683068 273.264 
L 296.290341 273.21838 
L 299.897614 273.400857 
L 303.504886 273.887462 
L 307.112159 274.009113 
L 310.719432 274.085145 
L 314.326705 274.282828 
L 317.933977 274.541337 
L 321.54125 274.678195 
L 325.148523 274.875878 
L 328.755795 275.134387 
L 332.363068 275.256038 
L 335.970341 275.484134 
L 339.577614 275.590579 
L 343.184886 275.605785 
L 346.792159 275.833881 
L 350.399432 276.016358 
L 354.006705 276.138009 
L 357.613977 276.290073 
L 361.22125 276.350899 
L 364.828523 276.457344 
L 368.435795 276.548582 
L 372.043068 276.609408 
L 375.650341 276.655027 
L 379.257614 276.624614 
L 382.864886 276.655027 
L 386.472159 276.715852 
L 390.079432 276.807091 
L 393.686705 276.837504 
L 397.293977 276.867916 
L 400.90125 276.883123 
" style="fill:none;stroke:#f10c45;stroke-linecap:square;stroke-width:1.5;"/>
   </g>
   <g id="line2d_17">
    <path clip-path="url(#p228fc3259d)" d="M 43.78125 277.111219 
L 47.388523 277.111219 
L 50.995795 277.111219 
L 54.603068 277.111219 
L 58.210341 277.096012 
L 61.817614 277.096012 
L 65.424886 277.096012 
L 69.032159 277.096012 
L 72.639432 277.080806 
L 76.246705 277.0656 
L 79.853977 277.0656 
L 83.46125 277.035187 
L 87.068523 277.01998 
L 90.675795 276.989568 
L 94.283068 276.974361 
L 97.890341 276.943948 
L 101.497614 276.928742 
L 105.104886 276.867916 
L 108.712159 276.700646 
L 112.319432 276.670233 
L 115.926705 276.670233 
L 119.533977 276.624614 
L 123.14125 276.548582 
L 126.748523 276.457344 
L 130.355795 276.457344 
L 133.963068 276.396518 
L 137.570341 276.30528 
L 141.177614 276.274867 
L 144.784886 276.229248 
L 148.392159 276.214041 
L 151.999432 276.09239 
L 155.606705 276.001152 
L 159.213977 276.001152 
L 162.82125 275.955532 
L 166.428523 275.833881 
L 170.035795 275.849088 
L 173.643068 275.727436 
L 177.250341 275.681817 
L 180.857614 275.529753 
L 184.464886 275.575372 
L 188.072159 275.514547 
L 191.679432 275.54496 
L 195.286705 275.423308 
L 198.893977 275.392896 
L 202.50125 275.377689 
L 206.108523 275.468928 
L 209.715795 275.347276 
L 213.323068 275.408102 
L 216.930341 275.1648 
L 220.537614 275.225625 
L 224.144886 275.240832 
L 227.752159 275.256038 
L 231.359432 275.134387 
L 234.966705 275.195212 
L 238.573977 275.210419 
L 242.18125 275.256038 
L 245.788523 275.180006 
L 249.395795 275.195212 
L 253.003068 275.1648 
L 256.610341 275.11918 
L 260.217614 275.027942 
L 263.824886 274.95191 
L 267.432159 275.043148 
L 271.039432 274.997529 
L 274.646705 275.1648 
L 278.253977 275.316864 
L 281.86125 275.347276 
L 285.468523 275.468928 
L 289.075795 275.529753 
L 292.683068 275.560166 
L 296.290341 275.636198 
L 299.897614 275.636198 
L 303.504886 275.681817 
L 307.112159 275.773056 
L 310.719432 275.849088 
L 314.326705 275.894707 
L 317.933977 275.909913 
L 321.54125 276.016358 
L 325.148523 276.016358 
L 328.755795 276.046771 
L 332.363068 276.107596 
L 335.970341 276.077184 
L 339.577614 276.107596 
L 343.184886 276.107596 
L 346.792159 276.198835 
L 350.399432 276.320486 
L 354.006705 276.381312 
L 357.613977 276.426931 
L 361.22125 276.502963 
L 364.828523 276.548582 
L 368.435795 276.594201 
L 372.043068 276.63982 
L 375.650341 276.609408 
L 379.257614 276.68544 
L 382.864886 276.761472 
L 386.472159 276.807091 
L 390.079432 276.822297 
L 393.686705 276.85271 
L 397.293977 276.867916 
L 400.90125 276.883123 
" style="fill:none;stroke:#cb0162;stroke-linecap:square;stroke-width:1.5;"/>
   </g>
   <g id="line2d_18">
    <path clip-path="url(#p228fc3259d)" d="M 43.78125 277.111219 
L 47.388523 277.111219 
L 50.995795 277.080806 
L 54.603068 277.0656 
L 58.210341 276.959155 
L 61.817614 276.746265 
L 65.424886 276.502963 
L 69.032159 276.153216 
L 72.639432 275.651404 
L 76.246705 275.073561 
L 79.853977 274.085145 
L 83.46125 273.203174 
L 87.068523 272.184345 
L 90.675795 270.907008 
L 94.283068 269.295129 
L 97.890341 267.546393 
L 101.497614 265.539148 
L 105.104886 263.227776 
L 108.712159 261.159705 
L 112.319432 258.81792 
L 115.926705 256.202419 
L 119.533977 253.49568 
L 123.14125 250.591257 
L 126.748523 247.534771 
L 130.355795 244.052505 
L 133.963068 240.661478 
L 137.570341 236.93591 
L 141.177614 233.271168 
L 144.784886 229.317504 
L 148.392159 224.892441 
L 151.999432 220.178457 
L 155.606705 216.02711 
L 159.213977 211.617254 
L 162.82125 207.268224 
L 166.428523 202.660684 
L 170.035795 197.885875 
L 173.643068 192.943795 
L 177.250341 188.549145 
L 180.857614 183.759129 
L 184.464886 178.893081 
L 188.072159 173.738112 
L 191.679432 168.67438 
L 195.286705 163.245696 
L 198.893977 157.801804 
L 202.50125 152.479564 
L 206.108523 147.370214 
L 209.715795 141.911116 
L 213.323068 136.4064 
L 216.930341 131.327462 
L 220.537614 125.853158 
L 224.144886 120.835046 
L 227.752159 115.816934 
L 231.359432 110.844441 
L 234.966705 105.978393 
L 238.573977 100.899456 
L 242.18125 96.246297 
L 245.788523 91.12174 
L 249.395795 86.544614 
L 253.003068 82.134758 
L 256.610341 77.937792 
L 260.217614 73.938508 
L 263.824886 70.21294 
L 267.432159 66.776294 
L 271.039432 62.959488 
L 274.646705 59.23392 
L 278.253977 55.873305 
L 281.86125 52.740787 
L 285.468523 50.186112 
L 289.075795 47.555404 
L 292.683068 45.365683 
L 296.290341 42.84142 
L 299.897614 40.636492 
L 303.504886 38.309913 
L 307.112159 36.3787 
L 310.719432 34.660377 
L 314.326705 33.124531 
L 317.933977 31.771161 
L 321.54125 30.387379 
L 325.148523 29.186073 
L 328.755795 28.106419 
L 332.363068 27.270067 
L 335.970341 26.403302 
L 339.577614 25.810252 
L 343.184886 25.369267 
L 346.792159 24.80663 
L 350.399432 24.289612 
L 354.006705 23.757388 
L 357.613977 23.28599 
L 361.22125 22.799385 
L 364.828523 22.419225 
L 368.435795 21.963033 
L 372.043068 21.689318 
L 375.650341 21.506841 
L 379.257614 21.248332 
L 382.864886 20.944204 
L 386.472159 20.731315 
L 390.079432 20.564044 
L 393.686705 20.4576 
L 397.293977 20.335948 
L 400.90125 20.229504 
" style="fill:none;stroke:#39ad48;stroke-linecap:square;stroke-width:1.5;"/>
   </g>
   <g id="line2d_19">
    <path clip-path="url(#p228fc3259d)" d="M 43.78125 277.111219 
L 47.388523 277.111219 
L 50.995795 277.111219 
L 54.603068 277.111219 
L 58.210341 277.111219 
L 61.817614 277.111219 
L 65.424886 277.111219 
L 69.032159 277.111219 
L 72.639432 277.111219 
L 76.246705 277.111219 
L 79.853977 277.111219 
L 83.46125 277.111219 
L 87.068523 277.111219 
L 90.675795 277.111219 
L 94.283068 277.111219 
L 97.890341 277.111219 
L 101.497614 277.111219 
L 105.104886 277.111219 
L 108.712159 277.111219 
L 112.319432 277.096012 
L 115.926705 277.080806 
L 119.533977 277.0656 
L 123.14125 277.004774 
L 126.748523 276.989568 
L 130.355795 276.898329 
L 133.963068 276.867916 
L 137.570341 276.837504 
L 141.177614 276.761472 
L 144.784886 276.700646 
L 148.392159 276.655027 
L 151.999432 276.624614 
L 155.606705 276.563788 
L 159.213977 276.487756 
L 162.82125 276.47255 
L 166.428523 276.396518 
L 170.035795 276.320486 
L 173.643068 276.25966 
L 177.250341 276.168422 
L 180.857614 276.138009 
L 184.464886 276.046771 
L 188.072159 275.955532 
L 191.679432 275.849088 
L 195.286705 275.788262 
L 198.893977 275.727436 
L 202.50125 275.651404 
L 206.108523 275.560166 
L 209.715795 275.54496 
L 213.323068 275.438515 
L 216.930341 275.316864 
L 220.537614 275.180006 
L 224.144886 275.027942 
L 227.752159 274.921497 
L 231.359432 274.815052 
L 234.966705 274.73902 
L 238.573977 274.602163 
L 242.18125 274.526131 
L 245.788523 274.450099 
L 249.395795 274.298035 
L 253.003068 274.206796 
L 256.610341 274.100352 
L 260.217614 274.039526 
L 263.824886 273.963494 
L 267.432159 273.887462 
L 271.039432 273.781017 
L 274.646705 273.613747 
L 278.253977 273.522508 
L 281.86125 273.400857 
L 285.468523 273.279206 
L 289.075795 273.203174 
L 292.683068 273.096729 
L 296.290341 273.035904 
L 299.897614 272.990284 
L 303.504886 272.853427 
L 307.112159 272.807808 
L 310.719432 272.746982 
L 314.326705 272.686156 
L 317.933977 272.655744 
L 321.54125 272.549299 
L 325.148523 272.50368 
L 328.755795 272.473267 
L 332.363068 272.382028 
L 335.970341 272.321203 
L 339.577614 272.305996 
L 343.184886 272.275584 
L 346.792159 272.245171 
L 350.399432 272.153932 
L 354.006705 272.0779 
L 357.613977 272.047488 
L 361.22125 272.001868 
L 364.828523 271.956249 
L 368.435795 271.91063 
L 372.043068 271.849804 
L 375.650341 271.849804 
L 379.257614 271.804185 
L 382.864886 271.804185 
L 386.472159 271.788979 
L 390.079432 271.788979 
L 393.686705 271.773772 
L 397.293977 271.758566 
L 400.90125 271.758566 
" style="fill:none;stroke:#000000;stroke-linecap:square;stroke-width:1.5;"/>
   </g>
   <g id="line2d_20">
    <path clip-path="url(#p228fc3259d)" d="M 43.78125 277.111219 
L 47.388523 276.943948 
L 50.995795 276.655027 
L 54.603068 276.214041 
L 58.210341 275.757849 
L 61.817614 275.043148 
L 65.424886 274.419686 
L 69.032159 273.628953 
L 72.639432 272.959872 
L 76.246705 271.819392 
L 79.853977 270.633292 
L 83.46125 269.158272 
L 87.068523 267.652838 
L 90.675795 266.405913 
L 94.283068 265.022131 
L 97.890341 263.455872 
L 101.497614 261.950438 
L 105.104886 260.779545 
L 108.712159 259.228492 
L 112.319432 257.723059 
L 115.926705 255.852672 
L 119.533977 254.42327 
L 123.14125 253.191552 
L 126.748523 251.914214 
L 130.355795 250.606464 
L 133.963068 249.237888 
L 137.570341 247.838899 
L 141.177614 246.303052 
L 144.784886 244.645555 
L 148.392159 244.174156 
L 151.999432 243.535488 
L 155.606705 242.349388 
L 159.213977 242.014848 
L 162.82125 241.208908 
L 166.428523 240.752716 
L 170.035795 240.494208 
L 173.643068 240.326937 
L 177.250341 239.064806 
L 180.857614 238.760678 
L 184.464886 238.502169 
L 188.072159 237.559372 
L 191.679432 236.799052 
L 195.286705 236.662195 
L 198.893977 236.570956 
L 202.50125 236.418892 
L 206.108523 236.00832 
L 209.715795 235.810636 
L 213.323068 236.129971 
L 216.930341 236.266828 
L 220.537614 236.753433 
L 224.144886 237.209625 
L 227.752159 237.437721 
L 231.359432 238.045977 
L 234.966705 238.167628 
L 238.573977 239.444966 
L 242.18125 240.326937 
L 245.788523 241.087257 
L 249.395795 242.136499 
L 253.003068 243.429043 
L 256.610341 244.782412 
L 260.217614 245.983718 
L 263.824886 246.774451 
L 267.432159 247.990963 
L 271.039432 249.754905 
L 274.646705 251.54926 
L 278.253977 253.009075 
L 281.86125 254.377651 
L 285.468523 255.578956 
L 289.075795 256.886707 
L 292.683068 258.088012 
L 296.290341 259.639065 
L 299.897614 260.794752 
L 303.504886 262.421836 
L 307.112159 263.607936 
L 310.719432 264.68759 
L 314.326705 265.797657 
L 317.933977 266.694835 
L 321.54125 267.804902 
L 325.148523 268.580428 
L 328.755795 269.340748 
L 332.363068 270.00983 
L 335.970341 270.739737 
L 339.577614 271.211136 
L 343.184886 271.560883 
L 346.792159 271.986662 
L 350.399432 272.488473 
L 354.006705 272.975078 
L 357.613977 273.355238 
L 361.22125 273.81143 
L 364.828523 274.161177 
L 368.435795 274.586956 
L 372.043068 274.906291 
L 375.650341 275.012736 
L 379.257614 275.256038 
L 382.864886 275.560166 
L 386.472159 275.773056 
L 390.079432 275.92512 
L 393.686705 275.985945 
L 397.293977 276.122803 
L 400.90125 276.214041 
" style="fill:none;stroke:#808080;stroke-linecap:square;stroke-width:1.5;"/>
   </g>
   <g id="line2d_21"/>
   <g id="line2d_22"/>
   <g id="line2d_23"/>
   <g id="line2d_24"/>
   <g id="line2d_25"/>
   <g id="line2d_26"/>
   <g id="line2d_27"/>
   <g id="line2d_28"/>
   <g id="line2d_29"/>
   <g id="patch_3">
    <path d="M 43.78125 277.111219 
L 43.78125 10.999219 
" style="fill:none;stroke:#000000;stroke-linecap:square;stroke-linejoin:miter;stroke-width:0.8;"/>
   </g>
   <g id="patch_4">
    <path d="M 400.90125 277.111219 
L 400.90125 10.999219 
" style="fill:none;stroke:#000000;stroke-linecap:square;stroke-linejoin:miter;stroke-width:0.8;"/>
   </g>
   <g id="patch_5">
    <path d="M 43.78125 277.111219 
L 400.90125 277.111219 
" style="fill:none;stroke:#000000;stroke-linecap:square;stroke-linejoin:miter;stroke-width:0.8;"/>
   </g>
   <g id="patch_6">
    <path d="M 43.78125 10.999219 
L 400.90125 10.999219 
" style="fill:none;stroke:#000000;stroke-linecap:square;stroke-linejoin:miter;stroke-width:0.8;"/>
   </g>
   <g id="legend_1">
    <g id="patch_7">
     <path d="M 422.18605 151.380469 
L 485.001675 151.380469 
Q 487.001675 151.380469 487.001675 149.380469 
L 487.001675 17.999219 
Q 487.001675 15.999219 485.001675 15.999219 
L 422.18605 15.999219 
Q 420.18605 15.999219 420.18605 17.999219 
L 420.18605 149.380469 
Q 420.18605 151.380469 422.18605 151.380469 
z
" style="fill:#ffffff;opacity:0.8;stroke:#cccccc;stroke-linejoin:miter;"/>
    </g>
    <g id="line2d_30">
     <path d="M 424.18605 24.097656 
L 444.18605 24.097656 
" style="fill:none;"/>
    </g>
    <g id="line2d_31"/>
    <g id="text_15">
     <!-- State -->
     <defs>
      <path d="M 53.515625 70.515625 
L 53.515625 60.890625 
Q 47.90625 63.578125 42.921875 64.890625 
Q 37.9375 66.21875 33.296875 66.21875 
Q 25.25 66.21875 20.875 63.09375 
Q 16.5 59.96875 16.5 54.203125 
Q 16.5 49.359375 19.40625 46.890625 
Q 22.3125 44.4375 30.421875 42.921875 
L 36.375 41.703125 
Q 47.40625 39.59375 52.65625 34.296875 
Q 57.90625 29 57.90625 20.125 
Q 57.90625 9.515625 50.796875 4.046875 
Q 43.703125 -1.421875 29.984375 -1.421875 
Q 24.8125 -1.421875 18.96875 -0.25 
Q 13.140625 0.921875 6.890625 3.21875 
L 6.890625 13.375 
Q 12.890625 10.015625 18.65625 8.296875 
Q 24.421875 6.59375 29.984375 6.59375 
Q 38.421875 6.59375 43.015625 9.90625 
Q 47.609375 13.234375 47.609375 19.390625 
Q 47.609375 24.75 44.3125 27.78125 
Q 41.015625 30.8125 33.5 32.328125 
L 27.484375 33.5 
Q 16.453125 35.6875 11.515625 40.375 
Q 6.59375 45.0625 6.59375 53.421875 
Q 6.59375 63.09375 13.40625 68.65625 
Q 20.21875 74.21875 32.171875 74.21875 
Q 37.3125 74.21875 42.625 73.28125 
Q 47.953125 72.359375 53.515625 70.515625 
z
" id="DejaVuSans-83"/>
     </defs>
     <g transform="translate(452.18605 27.597656)scale(0.1 -0.1)">
      <use xlink:href="#DejaVuSans-83"/>
      <use x="63.476562" xlink:href="#DejaVuSans-116"/>
      <use x="102.685547" xlink:href="#DejaVuSans-97"/>
      <use x="163.964844" xlink:href="#DejaVuSans-116"/>
      <use x="203.173828" xlink:href="#DejaVuSans-101"/>
     </g>
    </g>
    <g id="line2d_32">
     <path d="M 424.18605 38.775781 
L 444.18605 38.775781 
" style="fill:none;stroke:#3b5b92;stroke-linecap:square;stroke-width:1.5;"/>
    </g>
    <g id="line2d_33"/>
    <g id="text_16">
     <!-- S -->
     <g transform="translate(452.18605 42.275781)scale(0.1 -0.1)">
      <use xlink:href="#DejaVuSans-83"/>
     </g>
    </g>
    <g id="line2d_34">
     <path d="M 424.18605 53.453906 
L 444.18605 53.453906 
" style="fill:none;stroke:#ff5b00;stroke-linecap:square;stroke-width:1.5;"/>
    </g>
    <g id="line2d_35"/>
    <g id="text_17">
     <!-- E -->
     <defs>
      <path d="M 9.8125 72.90625 
L 55.90625 72.90625 
L 55.90625 64.59375 
L 19.671875 64.59375 
L 19.671875 43.015625 
L 54.390625 43.015625 
L 54.390625 34.71875 
L 19.671875 34.71875 
L 19.671875 8.296875 
L 56.78125 8.296875 
L 56.78125 0 
L 9.8125 0 
z
" id="DejaVuSans-69"/>
     </defs>
     <g transform="translate(452.18605 56.953906)scale(0.1 -0.1)">
      <use xlink:href="#DejaVuSans-69"/>
     </g>
    </g>
    <g id="line2d_36">
     <path d="M 424.18605 68.132031 
L 444.18605 68.132031 
" style="fill:none;stroke:#ff474c;stroke-linecap:square;stroke-width:1.5;"/>
    </g>
    <g id="line2d_37"/>
    <g id="text_18">
     <!-- I1 -->
     <defs>
      <path d="M 9.8125 72.90625 
L 19.671875 72.90625 
L 19.671875 0 
L 9.8125 0 
z
" id="DejaVuSans-73"/>
     </defs>
     <g transform="translate(452.18605 71.632031)scale(0.1 -0.1)">
      <use xlink:href="#DejaVuSans-73"/>
      <use x="29.492188" xlink:href="#DejaVuSans-49"/>
     </g>
    </g>
    <g id="line2d_38">
     <path d="M 424.18605 82.810156 
L 444.18605 82.810156 
" style="fill:none;stroke:#f10c45;stroke-linecap:square;stroke-width:1.5;"/>
    </g>
    <g id="line2d_39"/>
    <g id="text_19">
     <!-- I2 -->
     <g transform="translate(452.18605 86.310156)scale(0.1 -0.1)">
      <use xlink:href="#DejaVuSans-73"/>
      <use x="29.492188" xlink:href="#DejaVuSans-50"/>
     </g>
    </g>
    <g id="line2d_40">
     <path d="M 424.18605 97.488281 
L 444.18605 97.488281 
" style="fill:none;stroke:#cb0162;stroke-linecap:square;stroke-width:1.5;"/>
    </g>
    <g id="line2d_41"/>
    <g id="text_20">
     <!-- I3 -->
     <defs>
      <path d="M 40.578125 39.3125 
Q 47.65625 37.796875 51.625 33 
Q 55.609375 28.21875 55.609375 21.1875 
Q 55.609375 10.40625 48.1875 4.484375 
Q 40.765625 -1.421875 27.09375 -1.421875 
Q 22.515625 -1.421875 17.65625 -0.515625 
Q 12.796875 0.390625 7.625 2.203125 
L 7.625 11.71875 
Q 11.71875 9.328125 16.59375 8.109375 
Q 21.484375 6.890625 26.8125 6.890625 
Q 36.078125 6.890625 40.9375 10.546875 
Q 45.796875 14.203125 45.796875 21.1875 
Q 45.796875 27.640625 41.28125 31.265625 
Q 36.765625 34.90625 28.71875 34.90625 
L 20.21875 34.90625 
L 20.21875 43.015625 
L 29.109375 43.015625 
Q 36.375 43.015625 40.234375 45.921875 
Q 44.09375 48.828125 44.09375 54.296875 
Q 44.09375 59.90625 40.109375 62.90625 
Q 36.140625 65.921875 28.71875 65.921875 
Q 24.65625 65.921875 20.015625 65.03125 
Q 15.375 64.15625 9.8125 62.3125 
L 9.8125 71.09375 
Q 15.4375 72.65625 20.34375 73.4375 
Q 25.25 74.21875 29.59375 74.21875 
Q 40.828125 74.21875 47.359375 69.109375 
Q 53.90625 64.015625 53.90625 55.328125 
Q 53.90625 49.265625 50.4375 45.09375 
Q 46.96875 40.921875 40.578125 39.3125 
z
" id="DejaVuSans-51"/>
     </defs>
     <g transform="translate(452.18605 100.988281)scale(0.1 -0.1)">
      <use xlink:href="#DejaVuSans-73"/>
      <use x="29.492188" xlink:href="#DejaVuSans-51"/>
     </g>
    </g>
    <g id="line2d_42">
     <path d="M 424.18605 112.166406 
L 444.18605 112.166406 
" style="fill:none;stroke:#39ad48;stroke-linecap:square;stroke-width:1.5;"/>
    </g>
    <g id="line2d_43"/>
    <g id="text_21">
     <!-- R -->
     <defs>
      <path d="M 44.390625 34.1875 
Q 47.5625 33.109375 50.5625 29.59375 
Q 53.5625 26.078125 56.59375 19.921875 
L 66.609375 0 
L 56 0 
L 46.6875 18.703125 
Q 43.0625 26.03125 39.671875 28.421875 
Q 36.28125 30.8125 30.421875 30.8125 
L 19.671875 30.8125 
L 19.671875 0 
L 9.8125 0 
L 9.8125 72.90625 
L 32.078125 72.90625 
Q 44.578125 72.90625 50.734375 67.671875 
Q 56.890625 62.453125 56.890625 51.90625 
Q 56.890625 45.015625 53.6875 40.46875 
Q 50.484375 35.9375 44.390625 34.1875 
z
M 19.671875 64.796875 
L 19.671875 38.921875 
L 32.078125 38.921875 
Q 39.203125 38.921875 42.84375 42.21875 
Q 46.484375 45.515625 46.484375 51.90625 
Q 46.484375 58.296875 42.84375 61.546875 
Q 39.203125 64.796875 32.078125 64.796875 
z
" id="DejaVuSans-82"/>
     </defs>
     <g transform="translate(452.18605 115.666406)scale(0.1 -0.1)">
      <use xlink:href="#DejaVuSans-82"/>
     </g>
    </g>
    <g id="line2d_44">
     <path d="M 424.18605 126.844531 
L 444.18605 126.844531 
" style="fill:none;stroke:#000000;stroke-linecap:square;stroke-width:1.5;"/>
    </g>
    <g id="line2d_45"/>
    <g id="text_22">
     <!-- D -->
     <defs>
      <path d="M 19.671875 64.796875 
L 19.671875 8.109375 
L 31.59375 8.109375 
Q 46.6875 8.109375 53.6875 14.9375 
Q 60.6875 21.78125 60.6875 36.53125 
Q 60.6875 51.171875 53.6875 57.984375 
Q 46.6875 64.796875 31.59375 64.796875 
z
M 9.8125 72.90625 
L 30.078125 72.90625 
Q 51.265625 72.90625 61.171875 64.09375 
Q 71.09375 55.28125 71.09375 36.53125 
Q 71.09375 17.671875 61.125 8.828125 
Q 51.171875 0 30.078125 0 
L 9.8125 0 
z
" id="DejaVuSans-68"/>
     </defs>
     <g transform="translate(452.18605 130.344531)scale(0.1 -0.1)">
      <use xlink:href="#DejaVuSans-68"/>
     </g>
    </g>
    <g id="line2d_46">
     <path d="M 424.18605 141.522656 
L 444.18605 141.522656 
" style="fill:none;stroke:#808080;stroke-linecap:square;stroke-width:1.5;"/>
    </g>
    <g id="line2d_47"/>
    <g id="text_23">
     <!-- I_total -->
     <defs>
      <path d="M 50.984375 -16.609375 
L 50.984375 -23.578125 
L -0.984375 -23.578125 
L -0.984375 -16.609375 
z
" id="DejaVuSans-95"/>
      <path d="M 9.421875 75.984375 
L 18.40625 75.984375 
L 18.40625 0 
L 9.421875 0 
z
" id="DejaVuSans-108"/>
     </defs>
     <g transform="translate(452.18605 145.022656)scale(0.1 -0.1)">
      <use xlink:href="#DejaVuSans-73"/>
      <use x="29.492188" xlink:href="#DejaVuSans-95"/>
      <use x="79.492188" xlink:href="#DejaVuSans-116"/>
      <use x="118.701172" xlink:href="#DejaVuSans-111"/>
      <use x="179.882812" xlink:href="#DejaVuSans-116"/>
      <use x="219.091797" xlink:href="#DejaVuSans-97"/>
      <use x="280.371094" xlink:href="#DejaVuSans-108"/>
     </g>
    </g>
   </g>
  </g>
 </g>
 <defs>
  <clipPath id="p228fc3259d">
   <rect height="266.112" width="357.12" x="43.78125" y="10.999219"/>
  </clipPath>
 </defs>
</svg>
